<?xml version="1.0" encoding="UTF-8"?>
<svg version="1.1" xmlns="http://www.w3.org/2000/svg" width="512" height="512">
<path d="M0 0 C1.49781035 -0.00445668 1.49781035 -0.00445668 3.0258795 -0.0090034 C6.36407349 -0.01765866 9.70223148 -0.01919598 13.04043579 -0.02069092 C15.43750077 -0.02532147 17.83456502 -0.03034645 20.23162842 -0.03573608 C26.74041094 -0.04884232 33.2491866 -0.05533931 39.75797987 -0.05974674 C43.82947513 -0.06251615 47.90096803 -0.06675486 51.9724617 -0.07125092 C63.26526172 -0.08344124 74.55805986 -0.09373962 85.85086632 -0.09712601 C86.57287628 -0.09734557 87.29488625 -0.09756514 88.0387753 -0.09779136 C89.12426185 -0.09811878 89.12426185 -0.09811878 90.23167741 -0.09845281 C91.69787812 -0.09889626 93.16407883 -0.09934282 94.63027954 -0.09979248 C95.35755299 -0.10001391 96.08482643 -0.10023534 96.83413847 -0.10046348 C108.59778224 -0.10440484 120.36136381 -0.12183966 132.12498359 -0.145152 C144.22885257 -0.16894305 156.33269045 -0.18133144 168.43658316 -0.18249393 C175.22170694 -0.18340658 182.00674975 -0.18905425 188.79185104 -0.20731354 C195.18260374 -0.22387724 201.57320358 -0.22590959 207.96397018 -0.21717453 C210.29827282 -0.21640849 212.63258396 -0.22068909 214.96686554 -0.23063278 C249.2596412 -0.36804298 281.15735846 8.55214289 308.9335022 29.14044189 C309.74947876 29.73083252 310.56545532 30.32122314 311.40615845 30.92950439 C324.67325049 40.98502992 335.85474339 53.25129596 344.9335022 67.14044189 C345.5419397 67.99122314 346.1503772 68.84200439 346.7772522 69.71856689 C361.05738951 90.35985628 369.09728004 118.28995926 369.07394409 143.2069397 C369.07840078 144.70475005 369.07840078 144.70475005 369.08294749 146.2328192 C369.09160275 149.57101319 369.09314008 152.90917118 369.09463501 156.24737549 C369.09926556 158.64444047 369.10429054 161.04150472 369.10968018 163.43856812 C369.12278641 169.94735064 369.1292834 176.4561263 369.13369083 182.96491957 C369.13646024 187.03641482 369.14069895 191.10790773 369.14519501 195.1794014 C369.15738533 206.47220142 369.16768371 217.76499956 369.1710701 229.05780602 C369.17128966 229.77981598 369.17150923 230.50182594 369.17173545 231.245715 C369.17195373 231.9693727 369.17217201 232.69303039 369.1723969 233.43861711 C369.17284035 234.90481782 369.17328691 236.37101853 369.17373657 237.83721924 C369.173958 238.56449268 369.17417943 239.29176613 369.17440757 240.04107817 C369.17834893 251.80472193 369.19578375 263.56830351 369.21909609 275.33192329 C369.24288714 287.43579227 369.25527553 299.53963015 369.25643802 311.64352286 C369.25735067 318.42864663 369.26299835 325.21368944 369.28125763 331.99879074 C369.29782133 338.38954343 369.29985368 344.78014328 369.29111862 351.17090988 C369.29035258 353.50521252 369.29463318 355.83952365 369.30457687 358.17380524 C369.44198707 392.46658089 360.5218012 424.36429815 339.9335022 452.14044189 C339.34311157 452.95641846 338.75272095 453.77239502 338.1444397 454.61309814 C328.08891417 467.88019019 315.82264813 479.06168309 301.9335022 488.14044189 C301.08272095 488.74887939 300.2319397 489.35731689 299.3553772 489.98419189 C278.71408782 504.2643292 250.78398484 512.30421973 225.86700439 512.28088379 C224.36919404 512.28534047 224.36919404 512.28534047 222.84112489 512.28988719 C219.5029309 512.29854245 216.16477291 512.30007977 212.8265686 512.30157471 C210.42950362 512.30620526 208.03243937 512.31123024 205.63537598 512.31661987 C199.12659345 512.32972611 192.6178178 512.3362231 186.10902452 512.34063053 C182.03752927 512.34339993 177.96603636 512.34763865 173.89454269 512.3521347 C162.60174268 512.36432503 151.30894453 512.37462341 140.01613808 512.3780098 C139.29412811 512.37822936 138.57211815 512.37844893 137.82822909 512.37867515 C136.74274255 512.37900256 136.74274255 512.37900256 135.63532698 512.3793366 C134.16912627 512.37978005 132.70292556 512.38022661 131.23672485 512.38067627 C130.50945141 512.3808977 129.78217796 512.38111913 129.03286593 512.38134727 C117.26922216 512.38528863 105.50564058 512.40272345 93.7420208 512.42603579 C81.63815183 512.44982684 69.53431394 512.46221523 57.43042123 512.46337771 C50.64529746 512.46429036 43.86025465 512.46993804 37.07515335 512.48819733 C30.68440066 512.50476103 24.29380081 512.50679338 17.90303421 512.49805832 C15.56873157 512.49729228 13.23442044 512.50157288 10.90013885 512.51151657 C-23.3926368 512.64892677 -55.29035406 503.7287409 -83.0664978 483.14044189 C-84.29046265 482.25485596 -84.29046265 482.25485596 -85.53915405 481.35137939 C-98.8062461 471.29585387 -109.987739 459.02958783 -119.0664978 445.14044189 C-119.97915405 443.86427002 -119.97915405 443.86427002 -120.9102478 442.56231689 C-135.19038511 421.92102751 -143.23027564 393.99092453 -143.2069397 369.07394409 C-143.20991082 368.07540386 -143.21288194 367.07686362 -143.2159431 366.04806459 C-143.22459836 362.7098706 -143.22613568 359.37171261 -143.22763062 356.0335083 C-143.23226116 353.63644332 -143.23728614 351.23937907 -143.24267578 348.84231567 C-143.25578202 342.33353315 -143.26227901 335.82475749 -143.26668644 329.31596422 C-143.26945584 325.24446897 -143.27369456 321.17297606 -143.27819061 317.10148239 C-143.29038093 305.80868237 -143.30067931 294.51588423 -143.3040657 283.22307777 C-143.30428527 282.50106781 -143.30450484 281.77905784 -143.30473106 281.03516879 C-143.30494933 280.31151109 -143.30516761 279.5878534 -143.3053925 278.84226668 C-143.30583596 277.37606597 -143.30628252 275.90986526 -143.30673218 274.44366455 C-143.30695361 273.7163911 -143.30717504 272.98911766 -143.30740318 272.23980562 C-143.31134454 260.47616185 -143.32877935 248.71258028 -143.3520917 236.9489605 C-143.37588274 224.84509152 -143.38827114 212.74125364 -143.38943362 200.63736093 C-143.39034627 193.85223716 -143.39599395 187.06719435 -143.41425323 180.28209305 C-143.43081694 173.89134036 -143.43284929 167.50074051 -143.42411423 161.10997391 C-143.42334819 158.77567127 -143.42762878 156.44136014 -143.43757248 154.10707855 C-143.57498268 119.8143029 -134.6547968 87.91658563 -114.0664978 60.14044189 C-113.47610718 59.32446533 -112.88571655 58.50848877 -112.2774353 57.66778564 C-102.22190978 44.4006936 -89.95564374 33.2192007 -76.0664978 24.14044189 C-75.21571655 23.53200439 -74.3649353 22.92356689 -73.4883728 22.29669189 C-52.84708342 8.01655459 -24.91698044 -0.02333595 0 0 Z M-89.59384155 63.22637939 C-105.4838381 80.68397933 -115.5138693 102.20280834 -120.3164978 125.14044189 C-120.47996704 125.91041504 -120.64343628 126.68038818 -120.81185913 127.47369385 C-123.58939818 141.75839201 -123.21602094 156.46864408 -123.21176147 170.95513916 C-123.21476024 173.01030029 -123.2181644 175.06546087 -123.22193909 177.12062073 C-123.23071114 182.66235825 -123.23311434 188.2040803 -123.23375487 193.7458241 C-123.23446934 197.22039717 -123.23661113 200.69496639 -123.23925209 204.1695385 C-123.24848361 216.32626466 -123.2525898 228.48297992 -123.25180054 240.63970947 C-123.2512006 251.91457576 -123.26174157 263.18939408 -123.2775442 274.46424824 C-123.29068449 284.1913556 -123.29598171 293.9184474 -123.29534513 303.64556354 C-123.29509201 309.43416755 -123.29783913 315.22272888 -123.30852318 321.01132393 C-123.31831396 326.46403161 -123.31820941 331.91665675 -123.31100655 337.3693676 C-123.30997413 339.35164894 -123.31224182 341.33393574 -123.318367 343.31620789 C-123.44273516 386.41382607 -114.70944197 423.38709807 -83.8164978 454.95294189 C-65.68995584 472.85415071 -42.84640554 484.20208229 -18.0664978 489.39044189 C-17.29652466 489.55391113 -16.52655151 489.71738037 -15.73324585 489.88580322 C-1.44854769 492.66334227 13.26170439 492.28996504 27.74819946 492.28570557 C29.8033606 492.28870433 31.85852117 492.29210849 33.91368103 492.29588318 C39.45541856 492.30465523 44.9971406 492.30705843 50.5388844 492.30769897 C54.01345747 492.30841343 57.48802669 492.31055522 60.9625988 492.31319618 C73.11932497 492.3224277 85.27604022 492.3265339 97.43276978 492.32574463 C108.70763606 492.3251447 119.98245438 492.33568566 131.25730854 492.35148829 C140.9844159 492.36462859 150.7115077 492.36992581 160.43862385 492.36928922 C166.22722786 492.3690361 172.01578918 492.37178323 177.80438423 492.38246727 C183.25709191 492.39225805 188.70971705 492.3921535 194.1624279 492.38495064 C196.14470925 492.38391823 198.12699604 492.38618591 200.10926819 492.3923111 C243.20688637 492.51667925 280.18015838 483.78338606 311.7460022 452.89044189 C329.64721101 434.76389993 340.9951426 411.92034963 346.1835022 387.14044189 C346.34697144 386.37046875 346.51044067 385.60049561 346.67886353 384.80718994 C349.45640257 370.52249178 349.08302534 355.81223971 349.07876587 341.32574463 C349.08176463 339.27058349 349.08516879 337.21542292 349.08894348 335.16026306 C349.09771553 329.61852554 349.10011873 324.07680349 349.10075927 318.53505969 C349.10147373 315.06048662 349.10361553 311.5859174 349.10625648 308.11134529 C349.11548801 295.95461913 349.1195942 283.79790387 349.11880493 271.64117432 C349.118205 260.36630803 349.12874596 249.09148971 349.14454859 237.81663555 C349.15768889 228.08952819 349.16298611 218.36243639 349.16234952 208.63532025 C349.1620964 202.84671624 349.16484353 197.05815491 349.17552757 191.26955986 C349.18531835 185.81685218 349.1852138 180.36422704 349.17801094 174.91151619 C349.17697853 172.92923484 349.17924622 170.94694805 349.1853714 168.9646759 C349.30973956 125.86705772 340.57644636 88.89378572 309.6835022 57.32794189 C291.55696024 39.42673308 268.71340994 28.0788015 243.9335022 22.89044189 C243.16352905 22.72697266 242.39355591 22.56350342 241.60025024 22.39508057 C227.31555209 19.61754152 212.60530001 19.99091875 198.11880493 19.99517822 C196.0636438 19.99217946 194.00848322 19.9887753 191.95332336 19.98500061 C186.41158584 19.97622856 180.86986379 19.97382536 175.32811999 19.97318482 C171.85354693 19.97247036 168.3789777 19.97032857 164.90440559 19.96768761 C152.74767943 19.95845609 140.59096417 19.95434989 128.43423462 19.95513916 C117.15936833 19.95573909 105.88455001 19.94519813 94.60969585 19.9293955 C84.8825885 19.9162552 75.1554967 19.91095798 65.42838055 19.91159457 C59.63977654 19.91184769 53.85121521 19.90910056 48.06262016 19.89841652 C42.60991249 19.88862574 37.15728734 19.88873029 31.70457649 19.89593315 C29.72229515 19.89696556 27.74000836 19.89469788 25.75773621 19.88857269 C-19.31892913 19.75849354 -57.72034584 29.65947159 -89.59384155 63.22637939 Z " fill="#000000" transform="translate(143.06649780273438,-0.14044189453125)"/>
<path d="M0 0 C0.97545005 -0.00297112 1.95090011 -0.00594224 2.95590925 -0.0090034 C6.2158542 -0.0176565 9.47576227 -0.01919579 12.73571777 -0.02069092 C15.07691526 -0.02532156 17.418112 -0.03034656 19.75930786 -0.03573608 C26.11506943 -0.04884006 32.47082044 -0.05530138 38.8265934 -0.05974674 C42.80158759 -0.06268127 46.77657891 -0.06678684 50.75157166 -0.07125092 C61.77501523 -0.08343994 72.79845688 -0.0937392 83.82190704 -0.09712601 C84.52661447 -0.09734557 85.23132189 -0.09756514 85.95738408 -0.09779136 C86.66370301 -0.09800964 87.37002193 -0.09822791 88.09774446 -0.09845281 C89.52882671 -0.09889626 90.95990896 -0.09934282 92.39099121 -0.09979248 C93.10084559 -0.10001391 93.81069997 -0.10023534 94.54206508 -0.10046348 C106.02900001 -0.10440651 117.51587131 -0.12184704 129.00278169 -0.145152 C140.81961792 -0.16893108 152.63642231 -0.18133087 164.45328283 -0.18249393 C171.07849043 -0.18340714 177.70362482 -0.18939304 184.32881165 -0.20731354 C190.56689496 -0.2238588 196.80482165 -0.22591842 203.04291916 -0.21717453 C205.32323503 -0.21640755 207.60355954 -0.22070169 209.88385391 -0.23063278 C239.42921842 -0.35168575 265.88620524 6.78004546 288.14782715 27.14044189 C288.9986084 27.91001221 289.84938965 28.67958252 290.72595215 29.47247314 C297.244625 35.66121317 302.43606273 42.52369596 307.14782715 50.14044189 C307.50119141 50.70859619 307.85455566 51.27675049 308.21862793 51.86212158 C317.49617845 67.1120685 322.30536509 84.17199693 322.28826904 101.99261475 C322.29272573 103.45578983 322.29272573 103.45578983 322.29727244 104.948524 C322.30592554 108.20846894 322.30746483 111.46837701 322.30895996 114.72833252 C322.31359061 117.06953001 322.3186156 119.41072674 322.32400513 121.75192261 C322.33710911 128.10768417 322.34357042 134.46343518 322.34801579 140.81920815 C322.35095031 144.79420233 322.35505588 148.76919366 322.35951996 152.7441864 C322.37170898 163.76762997 322.38200824 174.79107163 322.38539505 185.81452179 C322.38561462 186.51922921 322.38583418 187.22393663 322.3860604 187.94999883 C322.38627868 188.65631775 322.38649696 189.36263668 322.38672185 190.09035921 C322.3871653 191.52144146 322.38761187 192.95252371 322.38806152 194.38360596 C322.38828295 195.09346034 322.38850438 195.80331471 322.38873252 196.53467983 C322.39267556 208.02161476 322.41011608 219.50848606 322.43342105 230.99539644 C322.45720013 242.81223266 322.46959991 254.62903706 322.47076297 266.44589758 C322.47167618 273.07110517 322.47766209 279.69623957 322.49558258 286.32142639 C322.51212785 292.5595097 322.51418746 298.79743639 322.50544357 305.03553391 C322.5046766 307.31584977 322.50897074 309.59617429 322.51890182 311.87646866 C322.63995479 341.42183317 315.50822358 367.87881999 295.14782715 390.14044189 C294.37825684 390.99122314 293.60868652 391.84200439 292.8157959 392.71856689 C286.62705588 399.23723974 279.76457308 404.42867748 272.14782715 409.14044189 C271.57967285 409.49380615 271.01151855 409.84717041 270.42614746 410.21124268 C255.8975317 419.04995979 239.21767572 424.23046654 222.18054199 424.33331299 C221.4170192 424.34149048 220.6534964 424.34966797 219.86683655 424.35809326 C217.36415356 424.38271708 214.86152597 424.39939492 212.35876465 424.41387939 C211.49985249 424.41920307 210.64094032 424.42452675 209.75600052 424.43001175 C205.21799872 424.45663076 200.68002349 424.47604952 196.14196777 424.49053955 C192.3920476 424.50392251 188.64266595 424.53187047 184.89294434 424.5725708 C180.35255856 424.62183661 175.81266389 424.64665084 171.27202225 424.65376663 C169.54562628 424.66047953 167.81924132 424.67570274 166.0929985 424.69965744 C163.68018842 424.73125658 161.26928565 424.73135585 158.85632324 424.72393799 C157.79172127 424.74854599 157.79172127 424.74854599 156.70561218 424.77365112 C152.87869109 424.72552511 151.26058137 424.23011226 148.22854614 421.81881714 C145.60733581 418.44470229 145.14782715 416.39864501 145.14782715 412.14044189 C146.66299342 408.12525126 147.55335244 406.53675836 151.14782715 404.14044189 C153.8551178 403.87542725 153.8551178 403.87542725 157.16955566 403.85333252 C158.4125795 403.83991821 159.65560333 403.82650391 160.93629456 403.81268311 C161.60166796 403.81012009 162.26704136 403.80755707 162.95257759 403.80491638 C165.05405175 403.79658357 167.15510023 403.7760257 169.25645447 403.75238037 C173.74101435 403.70414742 178.22561922 403.67137507 182.71032715 403.64044189 C233.95359693 403.33180748 233.95359693 403.33180748 277.27282715 377.51544189 C298.67869673 355.03927883 301.30170811 327.17821288 301.29309082 297.60284424 C301.2960876 295.54163554 301.29949132 293.48042739 301.30326843 291.41921997 C301.31206055 285.84864869 301.31444454 280.27809279 301.31508422 274.70751524 C301.31579753 271.2184162 301.31793716 267.72932101 301.32058144 264.24022293 C301.32981954 252.04273482 301.33391831 239.8452576 301.33312988 227.64776611 C301.33252974 216.3189194 301.34307302 204.99012041 301.35887355 193.66128576 C301.37199588 183.90118068 301.37731181 174.1410911 301.37667447 164.38097727 C301.37642083 158.56674622 301.37919741 152.7525576 301.38985252 146.93833542 C301.39961267 141.46351907 301.39955905 135.98878504 301.39233589 130.51396561 C301.39129976 128.51871875 301.39359421 126.52346655 301.39969635 124.52822876 C301.42668434 115.0827903 301.2861402 105.73412339 300.27326965 96.33566284 C300.19783312 95.62959282 300.12239659 94.9235228 300.0446741 94.19605672 C297.58220374 73.91902989 286.88645951 54.22190256 271.14782715 41.14044189 C248.0394623 23.49612391 223.83687066 20.98695391 195.61022949 20.99517822 C193.54902079 20.99218144 191.48781264 20.98877773 189.42660522 20.98500061 C183.85603394 20.97620849 178.28547805 20.9738245 172.71490049 20.97318482 C169.22580145 20.97247152 165.73670626 20.97033188 162.24760818 20.96768761 C150.05012008 20.95844951 137.85264286 20.95435073 125.65515137 20.95513916 C114.32630466 20.9557393 102.99750566 20.94519602 91.66867101 20.9293955 C81.90856593 20.91627316 72.14847635 20.91095724 62.38836253 20.91159457 C56.57413147 20.91184821 50.75994285 20.90907163 44.94572067 20.89841652 C39.47090433 20.88865637 33.9961703 20.88871 28.52135086 20.89593315 C26.52610401 20.89696928 24.53085181 20.89467483 22.53561401 20.88857269 C13.09017556 20.86158471 3.74150864 21.00212884 -5.6569519 22.01499939 C-6.71605693 22.12815419 -6.71605693 22.12815419 -7.79655802 22.24359494 C-28.07358486 24.70606531 -47.77071219 35.40180954 -60.85217285 51.14044189 C-78.49649084 74.24880674 -81.00566083 98.45139839 -80.99743652 126.67803955 C-81.0004333 128.73924825 -81.00383702 130.8004564 -81.00761414 132.86166382 C-81.01640626 138.4322351 -81.01879025 144.002791 -81.01942992 149.57336855 C-81.02014323 153.06246759 -81.02228287 156.55156278 -81.02492714 160.04066086 C-81.03416524 172.23814897 -81.03826402 184.43562618 -81.03747559 196.63311768 C-81.03687545 207.96196439 -81.04741873 219.29076338 -81.06321925 230.61959803 C-81.07634158 240.37970311 -81.08165751 250.13979269 -81.08102018 259.89990652 C-81.08076654 265.71413757 -81.08354311 271.52832619 -81.09419823 277.34254837 C-81.10395837 282.81736472 -81.10390475 288.29209875 -81.09668159 293.76691818 C-81.09564547 295.76216504 -81.09793992 297.75741724 -81.10404205 299.75265503 C-81.13103004 309.19809349 -80.9904859 318.5467604 -79.97761536 327.94522095 C-79.90217882 328.65129097 -79.82674229 329.35736099 -79.7490198 330.08482707 C-77.28654944 350.3618539 -66.59080521 370.05898123 -50.85217285 383.14044189 C-30.06056496 399.01580753 -8.31823656 403.27112795 17.48669243 403.27854156 C21.1309869 403.282935 24.7751162 403.31399451 28.41931152 403.33966064 C33.02345404 403.37007725 37.62731464 403.39274502 42.23156738 403.39093018 C45.98695359 403.39014304 49.74151907 403.41347671 53.49669075 403.45281219 C54.91876599 403.46324627 56.34093618 403.46481526 57.7630291 403.45716095 C59.74605229 403.44753364 61.72915205 403.47150245 63.71203613 403.49688721 C64.83722153 403.50053284 65.96240692 403.50417847 67.12168884 403.50793457 C71.09989142 404.3394373 72.61093298 406.03817095 75.14782715 409.14044189 C75.81188965 411.64044189 75.81188965 411.64044189 75.77282715 414.14044189 C75.78571777 414.96544189 75.7986084 415.79044189 75.81188965 416.64044189 C74.83546085 420.31640915 73.08278741 421.7607691 70.14782715 424.14044189 C67.38054479 424.62659932 65.23247242 424.80745115 62.4744873 424.75567627 C61.71756592 424.76122528 60.96064453 424.76677429 60.18078613 424.77249146 C57.68217249 424.78428348 55.18537631 424.75999677 52.68688965 424.73419189 C50.93635134 424.73247881 49.18581047 424.73254848 47.43527222 424.73431396 C43.76157137 424.73266032 40.08848034 424.71397215 36.41491699 424.68243408 C31.74733687 424.64304948 27.08056578 424.63835464 22.41285133 424.64589691 C18.79211252 424.64899712 15.17154933 424.63673424 11.55085373 424.61976624 C9.83278892 424.6128161 8.11470418 424.60960181 6.39662552 424.61045837 C-21.42526018 424.58940599 -47.0780775 416.14035208 -67.85217285 397.14044189 C-68.7029541 396.37087158 -69.55373535 395.60130127 -70.43029785 394.80841064 C-76.9489707 388.61967062 -82.14040843 381.75718783 -86.85217285 374.14044189 C-87.20553711 373.5722876 -87.55890137 373.0041333 -87.92297363 372.41876221 C-97.20052416 357.16881529 -102.00971079 340.10888686 -101.99261475 322.28826904 C-101.99558587 321.31281899 -101.99855699 320.33736894 -102.00161815 319.33235979 C-102.01027124 316.07241485 -102.01181054 312.81250677 -102.01330566 309.55255127 C-102.01793631 307.21135378 -102.0229613 304.87015705 -102.02835083 302.52896118 C-102.04145481 296.17319962 -102.04791612 289.8174486 -102.05236149 283.46167564 C-102.05529601 279.48668146 -102.05940159 275.51169013 -102.06386566 271.53669739 C-102.07605469 260.51325382 -102.08635395 249.48981216 -102.08974075 238.466362 C-102.08996032 237.76165458 -102.09017989 237.05694716 -102.0904061 236.33088496 C-102.09062438 235.62456604 -102.09084266 234.91824711 -102.09106755 234.19052458 C-102.09151101 232.75944233 -102.09195757 231.32836008 -102.09240723 229.89727783 C-102.09262866 229.18742345 -102.09285009 228.47756908 -102.09307823 227.74620396 C-102.09702126 216.25926903 -102.11446179 204.77239773 -102.13776675 193.28548735 C-102.16154583 181.46865113 -102.17394562 169.65184673 -102.17510867 157.83498621 C-102.17602188 151.20977862 -102.18200779 144.58464422 -102.19992828 137.9594574 C-102.21647355 131.72137409 -102.21853317 125.48344739 -102.20978928 119.24534988 C-102.2090223 116.96503402 -102.21331644 114.6847095 -102.22324753 112.40441513 C-102.34430049 82.85905062 -95.21256928 56.4020638 -74.85217285 34.14044189 C-74.08260254 33.28966064 -73.31303223 32.43887939 -72.5201416 31.56231689 C-66.33140158 25.04364404 -59.46891879 19.85220631 -51.85217285 15.14044189 C-51.28401855 14.78707764 -50.71586426 14.43371338 -50.13049316 14.06964111 C-34.88054625 4.79209059 -17.82061782 -0.01709605 0 0 Z " fill="#000000" transform="translate(145.8521728515625,43.85955810546875)"/>
<path d="M0 0 C1.08142273 0.00747757 1.08142273 0.00747757 2.18469238 0.0151062 C12.87583519 0.10159216 23.21965396 0.41009981 33.5625 3.375 C34.37541504 3.60606445 35.18833008 3.83712891 36.02587891 4.07519531 C69.39170727 13.85070058 98.81031095 33.68333545 117.5625 63.375 C117.92424316 63.94573242 118.28598633 64.51646484 118.65869141 65.10449219 C125.68709015 76.37663238 130.46346307 88.3338997 134.3125 101 C134.51125732 101.64364502 134.71001465 102.28729004 134.91479492 102.95043945 C138.26655517 114.50560775 138.94275517 126.15108742 138.875 138.125 C138.87251251 138.82976471 138.87002502 139.53452942 138.86746216 140.26065063 C138.80955642 150.87966041 138.48637653 161.09552002 135.5625 171.375 C135.33143555 172.18936523 135.10037109 173.00373047 134.86230469 173.84277344 C125.08566348 207.20633017 105.25235055 236.62395661 75.5625 255.375 C74.99176758 255.73674316 74.42103516 256.09848633 73.83300781 256.47119141 C62.56086762 263.49959015 50.6036003 268.27596307 37.9375 272.125 C37.29385498 272.32375732 36.65020996 272.52251465 35.98706055 272.72729492 C24.43189225 276.07905517 12.78641258 276.75525517 0.8125 276.6875 C0.10773529 276.68501251 -0.59702942 276.68252502 -1.32315063 276.67996216 C-11.94216041 276.62205642 -22.15802002 276.29887653 -32.4375 273.375 C-33.25186523 273.14393555 -34.06623047 272.91287109 -34.90527344 272.67480469 C-68.26883017 262.89816348 -97.68645661 243.06485055 -116.4375 213.375 C-116.79924316 212.80426758 -117.16098633 212.23353516 -117.53369141 211.64550781 C-124.56209015 200.37336762 -129.33846307 188.4161003 -133.1875 175.75 C-133.38625732 175.10635498 -133.58501465 174.46270996 -133.78979492 173.79956055 C-137.14185297 162.24336556 -137.81461781 150.59965379 -137.75 138.625 C-137.74817719 137.92189697 -137.74635437 137.21879395 -137.74447632 136.49438477 C-137.69803912 125.84438317 -137.18640461 115.71927156 -134.4375 105.375 C-134.26589355 104.72257324 -134.09428711 104.07014648 -133.91748047 103.39794922 C-131.81878911 95.61272328 -129.06736265 88.15055499 -125.875 80.75 C-125.59430664 80.09894287 -125.31361328 79.44788574 -125.02441406 78.77709961 C-122.64248577 73.45510826 -120.36000459 68.65666973 -115.4375 65.375 C-111.71698569 64.30018475 -109.91383127 64.19754325 -106.25 65.5625 C-103.42362245 67.38394331 -101.93311068 68.38377864 -100.4375 71.375 C-99.84435736 77.52211463 -101.48564604 81.39840124 -104.125 86.75 C-106.9863964 92.85498728 -109.44439076 98.89272696 -111.3125 105.375 C-111.50287842 106.03161621 -111.69325684 106.68823242 -111.8894043 107.36474609 C-112.44302764 109.36059202 -112.94910926 111.36222381 -113.4375 113.375 C-113.7156958 114.48125732 -113.7156958 114.48125732 -113.99951172 115.60986328 C-120.79543701 145.38219967 -113.21579339 176.82852762 -97.4375 202.375 C-81.63502817 226.4183614 -57.17936984 243.89701183 -29.4375 251.375 C-28.27992188 251.69339844 -27.12234375 252.01179687 -25.9296875 252.33984375 C5.31322512 259.53699029 37.56936075 253.04679971 64.5625 236.375 C88.6058614 220.57252817 106.08451183 196.11686984 113.5625 168.375 C113.88089844 167.21742188 114.19929687 166.05984375 114.52734375 164.8671875 C121.72449029 133.62427488 115.23429971 101.36813925 98.5625 74.375 C82.75718349 50.32731045 58.30516388 32.86111565 30.5625 25.375 C29.41652344 25.05660156 28.27054688 24.73820312 27.08984375 24.41015625 C7.98560478 19.97633822 -13.73396156 20.41024213 -32.4375 26.375 C-33.07703613 26.57818848 -33.71657227 26.78137695 -34.37548828 26.99072266 C-39.4324022 28.6392947 -44.40062113 30.44734068 -49.2421875 32.65234375 C-53.39837411 34.52831248 -56.31552435 35.80548925 -60.875 34.8125 C-65.76051741 32.84115087 -65.76051741 32.84115087 -67.4375 30.375 C-68.65010877 26.73717368 -68.83294552 24.19764001 -68.4375 20.375 C-62.86430148 12.21424502 -51.19630106 9.10103523 -42.1875 6.1875 C-41.46288574 5.94974854 -40.73827148 5.71199707 -39.99169922 5.46704102 C-26.75642547 1.37736147 -13.78730794 -0.16174852 0 0 Z " fill="#000000" transform="translate(255.4375,117.625)"/>
<path d="M0 0 C1.07121094 0.84498047 1.07121094 0.84498047 2.1640625 1.70703125 C17.8807851 14.66270799 29.98983175 36.69899697 32 57 C33.70892344 83.74148722 29.29156188 106.88535446 12 128 C11.43667969 128.71414063 10.87335938 129.42828125 10.29296875 130.1640625 C-2.66270799 145.8807851 -24.69899697 157.98983175 -45 160 C-71.74148722 161.70892344 -94.88535446 157.29156188 -116 140 C-117.07121094 139.15501953 -117.07121094 139.15501953 -118.1640625 138.29296875 C-133.8807851 125.33729201 -145.98983175 103.30100303 -148 83 C-149.70892344 56.25851278 -145.29156188 33.11464554 -128 12 C-127.43667969 11.28585938 -126.87335938 10.57171875 -126.29296875 9.8359375 C-95.33778841 -27.71624848 -36.50441921 -29.89481506 0 0 Z M-109 23 C-109.66386719 23.63292969 -110.32773438 24.26585937 -111.01171875 24.91796875 C-122.72870555 36.845598 -127.22392519 53.80801759 -127.375 70 C-127.19921892 88.83996501 -121.09801418 105.08595588 -107.63671875 118.45703125 C-106.76660156 119.29621094 -105.89648438 120.13539063 -105 121 C-104.36707031 121.66386719 -103.73414063 122.32773437 -103.08203125 123.01171875 C-91.154402 134.72870555 -74.19198241 139.22392519 -58 139.375 C-39.16003499 139.19921892 -22.91404412 133.09801418 -9.54296875 119.63671875 C-8.70378906 118.76660156 -7.86460937 117.89648438 -7 117 C-6.33613281 116.36707031 -5.67226563 115.73414063 -4.98828125 115.08203125 C6.72870555 103.154402 11.22392519 86.19198241 11.375 70 C11.19921892 51.16003499 5.09801418 34.91404412 -8.36328125 21.54296875 C-9.23339844 20.70378906 -10.10351562 19.86460937 -11 19 C-11.63292969 18.33613281 -12.26585937 17.67226562 -12.91796875 16.98828125 C-24.845598 5.27129445 -41.80801759 0.77607481 -58 0.625 C-78.64613815 0.81763308 -94.76611804 8.24136663 -109 23 Z " fill="#000000" transform="translate(314,186)"/>
<path d="M0 0 C8.3768441 8.13353327 12.20138292 17.33784948 12.87890625 28.8125 C12.89333871 39.9543596 8.45333014 49.88104283 0.90234375 58.0078125 C-8.00959782 66.04062637 -17.53927384 68.31152341 -29.31640625 68.1484375 C-41.17007235 67.14946461 -49.3500635 61.119533 -57.1796875 52.578125 C-63.92091941 43.00992487 -64.91931491 33.25271113 -64.1171875 21.828125 C-61.96635587 11.5015418 -55.89194618 3.11138687 -47.2890625 -2.890625 C-32.1162038 -11.84152006 -13.87802303 -11.12489296 0 0 Z M-37.67578125 16.22265625 C-41.96700221 21.25242562 -43.55094639 25.08705926 -43.359375 31.58984375 C-42.70289685 37.65697243 -39.28247892 40.91370388 -34.8359375 44.62890625 C-30.71088312 47.50706919 -25.93772157 47.51454409 -21.1171875 46.828125 C-15.59084548 44.57880684 -11.76216495 41.223879 -9.1171875 35.828125 C-7.63456829 29.69996559 -8.05735395 25.37630568 -11.1171875 19.828125 C-14.64407941 15.29354969 -18.6225923 13.17173377 -24.1171875 11.828125 C-29.2038875 11.828125 -33.77923902 12.73627636 -37.67578125 16.22265625 Z " fill="#000000" transform="translate(413.1171875,95.171875)"/>
<path d="M0 0 C3.5420773 3.09931764 4.84372778 4.88656044 5.5 9.5625 C4.97300076 13.18561975 4.22264703 15.11879089 2 18 C-2.01858595 20.6790573 -5.27641721 20.69610694 -10 20 C-12.87029869 18.20606332 -14.49131638 17.01736724 -16 14 C-16.42074378 10.94059163 -16.47999423 8.0540292 -16 5 C-11.6035991 -0.70343901 -6.91186866 -2.16500166 0 0 Z " fill="#000000" transform="translate(174,153)"/>
<path d="M0 0 C3.125 1.875 3.125 1.875 5 5 C5.98876625 10.02622846 5.7769173 13.70513784 3.125 18.125 C-1.29486216 20.7769173 -4.97377154 20.98876625 -10 20 C-13.125 18.125 -13.125 18.125 -15 15 C-15.98876625 9.97377154 -15.7769173 6.29486216 -13.125 1.875 C-8.70513784 -0.7769173 -5.02622846 -0.98876625 0 0 Z " fill="#000000" transform="translate(261,448)"/>
</svg>
