<?xml version="1.0" encoding="UTF-8"?>
<svg version="1.1" xmlns="http://www.w3.org/2000/svg" width="512" height="512">
<path d="M0 0 C1.65738668 -0.00302314 3.31477196 -0.00691344 4.9721548 -0.01159257 C9.51211012 -0.02186036 14.05198637 -0.01969384 18.59194815 -0.01541197 C23.49391441 -0.01294253 28.39586174 -0.02196165 33.29782104 -0.02944946 C42.8959291 -0.04219258 52.49400917 -0.04399062 62.09212426 -0.0416492 C69.89501398 -0.03986538 77.69789521 -0.04161705 85.50078392 -0.04587364 C86.61179505 -0.04646883 87.72280619 -0.04706402 88.86748433 -0.04767724 C91.12459575 -0.04888901 93.38170717 -0.05010315 95.63881858 -0.05131962 C116.80183092 -0.06219376 137.96482731 -0.06003332 159.12784054 -0.05393478 C178.47996189 -0.04876623 197.8320329 -0.06001966 217.1841443 -0.07903299 C237.06367008 -0.0984145 256.94317206 -0.10666681 276.82270736 -0.10290974 C287.98000507 -0.10099811 299.13725994 -0.10348155 310.29454994 -0.11762428 C319.7933369 -0.12954304 329.29205465 -0.13093742 338.79084257 -0.11883412 C343.63484913 -0.11294883 348.47872911 -0.11183635 353.3227272 -0.12383652 C357.76224157 -0.13470659 362.20152385 -0.13157858 366.64102741 -0.11757483 C368.24190333 -0.114931 369.84279749 -0.11728453 371.44365547 -0.1253107 C392.16946696 -0.22196086 408.85583901 5.54841522 423.73698425 20.26069641 C437.37267051 35.40912444 441.0487186 51.78676736 440.99768066 71.52371216 C441.00070381 73.18109884 441.00459411 74.83848412 441.00927323 76.49586695 C441.01954102 81.03582228 441.01737451 85.57569853 441.01309264 90.11566031 C441.01062319 95.01762657 441.01964232 99.9195739 441.02713013 104.8215332 C441.03987325 114.41964126 441.04167128 124.01772133 441.03932986 133.61583642 C441.03754605 141.41872614 441.03929772 149.22160737 441.04355431 157.02449608 C441.0441495 158.13550721 441.04474468 159.24651835 441.04535791 160.39119649 C441.04656968 162.64830791 441.04778381 164.90541932 441.04900029 167.16253074 C441.05987442 188.32554307 441.05771398 209.48853947 441.05161544 230.6515527 C441.04644689 250.00367405 441.05770032 269.35574506 441.07671366 288.70785645 C441.09609516 308.58738224 441.10434748 328.46688422 441.10059041 348.34641951 C441.09867878 359.50371723 441.10116221 370.6609721 441.11530495 381.8182621 C441.1272237 391.31704906 441.12861808 400.81576681 441.11651478 410.31455473 C441.11062949 415.15856129 441.10951702 420.00244126 441.12151718 424.84643936 C441.13238726 429.28595373 441.12925924 433.72523601 441.1152555 438.16473957 C441.11261166 439.76561548 441.1149652 441.36650965 441.12299136 442.96736763 C441.21964152 463.69317911 435.44926544 480.37955116 420.73698425 495.26069641 C405.58855622 508.89638267 389.2109133 512.57243076 369.47396851 512.52139282 C367.81658183 512.52441597 366.15919654 512.52830627 364.50181371 512.53298539 C359.96185838 512.54325318 355.42198213 512.54108667 350.88202035 512.5368048 C345.98005409 512.53433535 341.07810676 512.54335447 336.17614746 512.55084229 C326.57803941 512.56358541 316.97995933 512.56538344 307.38184424 512.56304202 C299.57895452 512.5612582 291.77607329 512.56300988 283.97318459 512.56726646 C282.86217345 512.56786165 281.75116232 512.56845684 280.60648418 512.56907007 C278.34937276 512.57028183 276.09226134 512.57149597 273.83514992 512.57271244 C252.67213759 512.58358658 231.50914119 512.58142614 210.34612796 512.5753276 C190.99400661 512.57015905 171.6419356 512.58141248 152.28982421 512.60042582 C132.41029842 512.61980732 112.53079645 512.62805963 92.65126115 512.62430257 C81.49396344 512.62239093 70.33670857 512.62487437 59.17941856 512.63901711 C49.6806316 512.65093586 40.18191386 512.65233024 30.68312594 512.64022694 C25.83911938 512.63434165 20.9952394 512.63322918 16.1512413 512.64522934 C11.71172693 512.65609942 7.27244466 512.6529714 2.83294109 512.63896766 C1.23206518 512.63632382 -0.36882899 512.63867736 -1.96968696 512.64670352 C-22.69549845 512.74335368 -39.3818705 506.9729776 -54.26301575 492.26069641 C-67.89870201 477.11226838 -71.5747501 460.73462546 -71.52371216 440.99768066 C-71.5267353 439.34029398 -71.5306256 437.6829087 -71.53530473 436.02552587 C-71.54557252 431.48557054 -71.543406 426.94569429 -71.53912413 422.40573251 C-71.53665469 417.50376625 -71.54567381 412.60181892 -71.55316162 407.69985962 C-71.56590474 398.10175157 -71.56770278 388.50367149 -71.56536136 378.9055564 C-71.56357754 371.10266668 -71.56532921 363.29978545 -71.5695858 355.49689674 C-71.57018099 354.38588561 -71.57077618 353.27487448 -71.5713894 352.13019634 C-71.57260117 349.87308492 -71.5738153 347.6159735 -71.57503178 345.35886208 C-71.58590591 324.19584975 -71.58374547 303.03285335 -71.57764693 281.86984012 C-71.57247839 262.51771877 -71.58373182 243.16564776 -71.60274515 223.81353637 C-71.62212665 203.93401058 -71.63037897 184.05450861 -71.6266219 164.17497331 C-71.62471027 153.01767559 -71.62719371 141.86042072 -71.64133644 130.70313072 C-71.6532552 121.20434376 -71.65464957 111.70562602 -71.64254627 102.20683809 C-71.63666099 97.36283154 -71.63554851 92.51895156 -71.64754868 87.67495346 C-71.65841875 83.23543909 -71.65529073 78.79615682 -71.64128699 74.35665325 C-71.63864316 72.75577734 -71.64099669 71.15488317 -71.64902285 69.5540252 C-71.74567302 48.82821371 -65.97529693 32.14184166 -51.26301575 17.26069641 C-36.11458771 3.62501015 -19.7369448 -0.05103794 0 0 Z M-35.26301575 32.26069641 C-35.87016418 32.77374329 -36.47731262 33.28679016 -37.1028595 33.81538391 C-46.49804872 42.4087955 -50.35246357 53.82907759 -51.26301575 66.26069641 C-51.40780157 71.40340317 -51.40256223 76.54431985 -51.39672852 81.68850708 C-51.39859871 83.25514696 -51.40090024 84.82178637 -51.40359384 86.38842505 C-51.4096924 90.67752695 -51.40958054 94.9666093 -51.40839946 99.25571454 C-51.40819497 103.88773403 -51.41371885 108.51974733 -51.41845703 113.15176392 C-51.42675326 122.2204697 -51.4295114 131.28916898 -51.43006941 140.35787825 C-51.43054502 147.73075041 -51.432602 155.10362044 -51.43577003 162.47649193 C-51.44457347 183.39079252 -51.44918985 204.30508798 -51.44843956 225.21939043 C-51.4483996 226.34620744 -51.44835965 227.47302445 -51.44831848 228.63398743 C-51.4482776 229.7621838 -51.44823672 230.89038018 -51.4481946 232.05276432 C-51.44778812 250.33789755 -51.4573589 268.6230102 -51.47145685 286.90813748 C-51.48582618 305.69380796 -51.49272674 324.47946841 -51.49186307 343.26514453 C-51.49153132 353.80762934 -51.4942691 364.35009255 -51.50504112 374.8925724 C-51.5141534 383.86799763 -51.51631535 392.84339147 -51.5095317 401.81881932 C-51.50627031 406.39546767 -51.5061961 410.97205583 -51.51488495 415.54869843 C-51.52276756 419.74391278 -51.52130059 423.93901939 -51.51260082 428.13423117 C-51.51106971 429.64627919 -51.51286719 431.15833533 -51.51846089 432.67037378 C-51.57438495 448.86900304 -50.20070217 463.60574038 -39.26301575 476.26069641 C-38.74996887 476.86784485 -38.236922 477.47499329 -37.70832825 478.10054016 C-29.11491666 487.49572939 -17.69463457 491.35014424 -5.26301575 492.26069641 C-0.12030899 492.40548224 5.02060769 492.4002429 10.16479492 492.39440918 C11.7314348 492.39627937 13.29807421 492.39858091 14.86471289 492.4012745 C19.15381479 492.40737306 23.44289714 492.40726121 27.73200238 492.40608013 C32.36402187 492.40587563 36.99603517 492.41139952 41.62805176 492.4161377 C50.69675754 492.42443393 59.76545683 492.42719206 68.83416609 492.42775007 C76.20703825 492.42822568 83.57990828 492.43028266 90.95277977 492.4334507 C111.86708036 492.44225414 132.78137582 492.44687051 153.69567827 492.44612022 C154.82249528 492.44608027 155.94931229 492.44604031 157.11027527 492.44599915 C158.23847164 492.44595826 159.36666802 492.44591738 160.52905216 492.44587526 C178.8141854 492.44546879 197.09929804 492.45503956 215.38442532 492.46913751 C234.1700958 492.48350685 252.95575625 492.4904074 271.74143237 492.48954374 C282.28391718 492.48921198 292.82638039 492.49194976 303.36886024 492.50272179 C312.34428547 492.51183407 321.31967931 492.51399601 330.29510716 492.50721236 C334.87175551 492.50395097 339.44834367 492.50387676 344.02498627 492.51256561 C348.22020062 492.52044822 352.41530723 492.51898126 356.61051901 492.51028148 C358.12256704 492.50875038 359.63462317 492.51054786 361.14666162 492.51614156 C377.34529089 492.57206561 392.08202823 491.19838283 404.73698425 480.26069641 C405.34413269 479.74764954 405.95128113 479.23460266 406.576828 478.70600891 C415.97201723 470.11259732 419.82643208 458.69231523 420.73698425 446.26069641 C420.88177008 441.11798965 420.87653074 435.97707298 420.87069702 430.83288574 C420.87256721 429.26624586 420.87486875 427.69960645 420.87756234 426.13296777 C420.8836609 421.84386587 420.88354905 417.55478353 420.88236797 413.26567829 C420.88216347 408.63365879 420.88768736 404.00164549 420.89242554 399.36962891 C420.90072177 390.30092312 420.90347991 381.23222384 420.90403792 372.16351458 C420.90451352 364.79064241 420.9065705 357.41777238 420.90973854 350.04490089 C420.91854198 329.13060031 420.92315835 308.21630485 420.92240807 287.30200239 C420.92236811 286.17518538 420.92232815 285.04836837 420.92228699 283.8874054 C420.92224611 282.75920902 420.92220523 281.63101265 420.92216311 280.4686285 C420.92175663 262.18349527 420.93132741 243.89838262 420.94542535 225.61325534 C420.95979469 206.82758486 420.96669524 188.04192441 420.96583158 169.2562483 C420.96549982 158.71376349 420.96823761 148.17130027 420.97900963 137.62882042 C420.98812191 128.65339519 420.99028385 119.67800135 420.9835002 110.7025735 C420.98023881 106.12592515 420.9801646 101.54933699 420.98885345 96.9726944 C420.99673606 92.77748004 420.9952691 88.58237343 420.98656932 84.38716165 C420.98503822 82.87511363 420.9868357 81.3630575 420.9924294 79.85101905 C421.04835345 63.65238978 419.67467067 48.91565244 408.73698425 36.26069641 C407.96741394 35.34997375 407.96741394 35.34997375 407.18229675 34.42085266 C398.58888516 25.02566344 387.16860308 21.17124859 374.73698425 20.26069641 C369.59427749 20.11591058 364.45336082 20.12114992 359.30917358 20.12698364 C357.7425337 20.12511345 356.17589429 20.12281192 354.60925561 20.12011832 C350.32015372 20.11401976 346.03107137 20.11413162 341.74196613 20.1153127 C337.10994663 20.11551719 332.47793334 20.1099933 327.84591675 20.10525513 C318.77721096 20.09695889 309.70851168 20.09420076 300.63980242 20.09364275 C293.26693025 20.09316714 285.89406023 20.09111016 278.52118874 20.08794212 C257.60688815 20.07913868 236.69259269 20.07452231 215.77829023 20.0752726 C214.08806472 20.07533253 214.08806472 20.07533253 212.36369324 20.07539368 C211.23549686 20.07543456 210.10730049 20.07547544 208.94491635 20.07551756 C190.65978311 20.07592403 172.37467047 20.06635326 154.08954319 20.05225531 C135.3038727 20.03788597 116.51821226 20.03098542 97.73253614 20.03184909 C87.19005133 20.03218084 76.64758811 20.02944306 66.10510826 20.01867104 C57.12968304 20.00955876 48.15428919 20.00739681 39.17886134 20.01418046 C34.60221299 20.01744185 30.02562484 20.01751606 25.44898224 20.00882721 C21.25376788 20.0009446 17.05866128 20.00241157 12.86344949 20.01111134 C11.35140147 20.01264244 9.83934534 20.01084496 8.32730689 20.00525127 C-7.87132238 19.94932721 -22.60805972 21.32300999 -35.26301575 32.26069641 Z " fill="#000000" transform="translate(71.26301574707031,-0.2606964111328125)"/>
<path d="M0 0 C19.79828958 18.85957757 25.56607262 46.40788032 26.2853775 72.77538872 C26.33035253 76.69080588 26.34574307 80.60563022 26.34863281 84.52124023 C26.35327477 86.01094176 26.35830121 87.50064213 26.36367798 88.99034119 C26.37665525 92.99397839 26.38321559 96.99759896 26.38768864 101.00125384 C26.39063801 103.50715079 26.39474573 106.01304336 26.39919281 108.51893806 C26.41281724 116.37417178 26.42251343 124.22939527 26.4263947 132.08463997 C26.43088967 141.12840605 26.44852506 150.17202208 26.4773953 159.21574253 C26.49900641 166.23005621 26.50909836 173.24432758 26.51043582 180.2586742 C26.5114825 184.4394045 26.51736351 188.61999274 26.53525543 192.80068779 C26.55173051 196.72508364 26.55389452 200.64923034 26.54511642 204.57364845 C26.54434626 206.0111597 26.54868613 207.44868437 26.55857468 208.8861618 C26.57130196 210.85171494 26.56362283 212.81736834 26.55499268 214.78294373 C26.55645924 215.88142859 26.5579258 216.97991346 26.5594368 218.11168575 C26.12419582 221.711008 25.06295491 224.09839719 23.1875 227.1875 C18.83012261 230.1258499 15.28696536 230.56559247 10.09985352 230.57568359 C9.4177179 230.58094055 8.73558228 230.58619751 8.03277588 230.59161377 C5.79374813 230.60474091 3.55544035 230.59610122 1.31640625 230.5859375 C-0.25008784 230.58796058 -1.81658102 230.59087396 -3.3830719 230.59463501 C-6.6605021 230.59904868 -9.93768637 230.59265924 -13.21508789 230.57861328 C-17.40249217 230.56153594 -21.58931889 230.57135913 -25.77670193 230.58933067 C-29.01020098 230.60020664 -32.24356467 230.59670453 -35.47706795 230.5889473 C-37.02033622 230.58695507 -38.56361704 230.58937 -40.10687065 230.59638596 C-42.27006118 230.60406214 -44.4323361 230.59231124 -46.59545898 230.57568359 C-48.43695778 230.57210342 -48.43695778 230.57210342 -50.31565857 230.56845093 C-54.48885294 230.11381714 -57.099378 229.13328896 -60.8125 227.1875 C-63.07987742 223.78643388 -63.06593146 222.60120034 -63.07751465 218.61032104 C-63.08578781 217.44963608 -63.09406097 216.28895111 -63.10258484 215.09309387 C-63.10160294 213.81826645 -63.10062103 212.54343903 -63.09960938 211.22998047 C-63.10563342 209.87469572 -63.11255763 208.51941472 -63.12031555 207.16413879 C-63.13521365 204.24380266 -63.14395617 201.32353501 -63.14802551 198.40316391 C-63.15474062 193.77970303 -63.17649967 189.15638816 -63.20056152 184.5329895 C-63.24955708 174.70952726 -63.28182306 164.88603392 -63.3125 155.0625 C-63.34560545 144.47757393 -63.38167748 133.8927049 -63.43663073 123.30786622 C-63.45989356 118.71828878 -63.47369925 114.12881199 -63.48012543 109.53918147 C-63.48609518 106.67287676 -63.50021923 103.80665272 -63.51646996 100.94038963 C-63.52507876 98.99197027 -63.52393033 97.04351531 -63.52241516 95.09507751 C-63.58702369 85.89868496 -63.8488674 77.34141357 -69.92578125 69.984375 C-74.91832958 65.22956707 -80.50398405 62.91845852 -87.375 62.6875 C-97.50508779 63.25740649 -103.91417246 66.73508993 -110.8125 74.1875 C-117.57411237 82.62996516 -117.10805731 94.12041513 -117.09960938 104.37646484 C-117.11009725 106.34495461 -117.1205857 108.31344437 -117.13109589 110.28193402 C-117.14041026 112.37743032 -117.14492285 114.47288712 -117.14802551 116.56840134 C-117.15478576 120.94741647 -117.17658981 125.32628064 -117.20056152 129.70523071 C-117.25347325 139.7814162 -117.28709198 149.85764792 -117.32032013 159.93391418 C-117.35102335 169.1911597 -117.38582378 178.44833942 -117.43663073 187.70549929 C-117.45995525 192.05812998 -117.47371344 196.4106537 -117.48012543 200.76334071 C-117.48463228 202.81572203 -117.49364054 204.86802387 -117.50468445 206.92037964 C-117.51812059 209.42156106 -117.52445464 211.92279455 -117.52241516 214.42401123 C-117.53068832 215.52572662 -117.53896149 216.62744202 -117.54748535 217.76254272 C-117.55041847 218.71928076 -117.55335159 219.67601879 -117.5563736 220.66174889 C-117.82943042 223.35445673 -118.31418249 224.94225902 -119.8125 227.1875 C-124.80934383 229.924182 -128.64249999 230.56510855 -134.39672852 230.57568359 C-135.11963074 230.58094055 -135.84253296 230.58619751 -136.58734131 230.59161377 C-138.95558858 230.60472137 -141.32315321 230.59611002 -143.69140625 230.5859375 C-145.34854765 230.58796068 -147.00568817 230.59087415 -148.66282654 230.59463501 C-152.1267855 230.59904564 -155.59051157 230.59266733 -159.05444336 230.57861328 C-163.48516371 230.56150861 -167.91533931 230.57137848 -172.34603977 230.58933067 C-175.76478654 230.60019129 -179.18340497 230.59671198 -182.60215569 230.5889473 C-184.23556521 230.58695228 -185.86898656 230.58937995 -187.50238228 230.59638596 C-189.78778927 230.60403972 -192.0723237 230.59234303 -194.35766602 230.57568359 C-196.30456078 230.57210342 -196.30456078 230.57210342 -198.29078674 230.56845093 C-203.05131753 230.05349457 -206.39228401 228.94330973 -209.45878887 225.15219688 C-211.34046519 221.03122912 -211.22794644 217.44430134 -211.19345093 212.96411133 C-211.20047089 211.56641998 -211.20047089 211.56641998 -211.20763266 210.14049244 C-211.21960329 207.01669414 -211.2101172 203.89333285 -211.20068359 200.76953125 C-211.20474837 198.53062687 -211.21008971 196.29172449 -211.21661377 194.05282593 C-211.2303043 187.97028573 -211.22498147 181.88789798 -211.21547651 175.80535507 C-211.20788896 169.4442071 -211.21492301 163.08307231 -211.21963501 156.72192383 C-211.22544508 145.35430196 -211.21611353 133.9867576 -211.200857 122.61915123 C-211.18745384 112.31344923 -211.18978194 102.00784861 -211.20361328 91.70214844 C-211.21966992 79.73278479 -211.22564276 67.76348273 -211.21677649 55.79410458 C-211.21209586 49.45870975 -211.21148588 43.12338475 -211.22138596 36.78799438 C-211.23004237 30.8322923 -211.22405779 24.87678195 -211.20670319 18.92110062 C-211.20273128 16.733347 -211.20388437 14.54557729 -211.21049118 12.35783005 C-211.21866877 9.37529729 -211.20843061 6.39338192 -211.19345093 3.41088867 C-211.20014309 2.54172727 -211.20683526 1.67256586 -211.21373022 0.77706623 C-211.16802431 -3.90313627 -210.87368612 -7.02699563 -207.8125 -10.8125 C-203.27392283 -13.80201221 -199.61928409 -14.19096554 -194.25 -14.20068359 C-193.51749023 -14.20594055 -192.78498047 -14.21119751 -192.03027344 -14.21661377 C-189.62412798 -14.22974954 -187.21865145 -14.22109891 -184.8125 -14.2109375 C-183.13150913 -14.21296009 -181.45051912 -14.21587307 -179.76953125 -14.21963501 C-176.25251889 -14.22404965 -172.73573565 -14.21765513 -169.21875 -14.20361328 C-164.7196224 -14.18652181 -160.22103175 -14.19636762 -155.72192383 -14.21433067 C-152.25256331 -14.22519183 -148.78332925 -14.2217115 -145.31396484 -14.2139473 C-143.65543554 -14.21195173 -141.99689462 -14.21438188 -140.33837891 -14.22138596 C-138.01694497 -14.22903906 -135.69637025 -14.21734323 -133.375 -14.20068359 C-132.05628906 -14.19829681 -130.73757813 -14.19591003 -129.37890625 -14.19345093 C-125.51245001 -13.78044972 -123.10322483 -12.85298787 -119.8125 -10.8125 C-116.35934951 -5.97808931 -116.47051802 -1.51219959 -116.8125 4.1875 C-116.22984375 3.69121094 -115.6471875 3.19492188 -115.046875 2.68359375 C-83.14263739 -23.75277924 -32.47781821 -28.19162996 0 0 Z M-107.8125 25.1875 C-111.70631225 29.63671799 -115.33296656 34.26817864 -118.94140625 38.94921875 C-120.92156397 41.31796692 -121.78232715 42.04582593 -124.80078125 42.4609375 C-125.56777344 42.49445313 -126.33476562 42.52796875 -127.125 42.5625 C-127.88425781 42.61148438 -128.64351562 42.66046875 -129.42578125 42.7109375 C-133.06599304 41.91259318 -134.47372213 40.0271721 -136.8125 37.1875 C-137.47192383 33.8659668 -137.47192383 33.8659668 -137.51953125 30.13671875 C-137.54764893 28.93104248 -137.5757666 27.72536621 -137.60473633 26.4831543 C-137.61142334 24.96246338 -137.61811035 23.44177246 -137.625 21.875 C-137.686875 17.028125 -137.74875 12.18125 -137.8125 7.1875 C-154.9725 7.1875 -172.1325 7.1875 -189.8125 7.1875 C-189.8125 73.8475 -189.8125 140.5075 -189.8125 209.1875 C-172.9825 209.1875 -156.1525 209.1875 -138.8125 209.1875 C-138.73902344 196.63654297 -138.73902344 196.63654297 -138.6640625 183.83203125 C-138.62414635 177.83660828 -138.58302409 171.84120303 -138.54016876 165.84580135 C-138.48490146 158.09164172 -138.432421 150.33749716 -138.390625 142.58325195 C-138.35395315 135.78155049 -138.30719498 128.97997641 -138.25443649 122.17838097 C-138.23598336 119.59064563 -138.22084236 117.00288437 -138.20915604 114.41510963 C-138.1921374 110.77506861 -138.16306593 107.13530005 -138.13134766 103.49536133 C-138.12918747 102.43871277 -138.12702728 101.38206421 -138.12480164 100.293396 C-137.93042972 82.69497817 -134.31686634 68.23754771 -122.0078125 55.2890625 C-110.73899772 44.58135053 -97.49650409 41.68391651 -82.42578125 41.94140625 C-71.50320037 42.68532257 -61.99933875 47.47384947 -54.5 55.4375 C-44.01192288 68.00200451 -42.68761086 81.84023761 -42.60717773 97.59204102 C-42.59727814 98.802798 -42.58737854 100.01355499 -42.57717896 101.26100159 C-42.55115688 104.5537399 -42.52922756 107.84647382 -42.50917697 111.1392529 C-42.48717353 114.59057686 -42.45985571 118.04185884 -42.43312073 121.4931488 C-42.38338654 128.01644718 -42.33837697 134.5397691 -42.29509836 141.06311315 C-42.24556028 148.49488897 -42.1907041 155.92662261 -42.13541877 163.35835755 C-42.02189496 178.63470076 -41.91569437 193.91108299 -41.8125 209.1875 C-26.3025 209.1875 -10.7925 209.1875 5.1875 209.1875 C5.25553703 191.16606194 5.31066649 173.14473557 5.34293652 155.12320423 C5.35832632 146.75323155 5.37926252 138.38334505 5.41381836 130.01342773 C5.44396488 122.70795285 5.46313209 115.40254044 5.46976548 108.09700507 C5.47363557 104.23807665 5.48256031 100.37932679 5.50469017 96.52045631 C6.25057444 53.86081224 6.25057444 53.86081224 -12.859375 17.02734375 C-24.90664912 5.67881153 -39.97286203 1.86668285 -56.27734375 2.03515625 C-76.87351289 2.92272597 -93.42686325 10.34962018 -107.8125 25.1875 Z " fill="#000000" transform="translate(407.8125,203.8125)"/>
<path d="M0 0 C1.11273788 -0.00744736 1.11273788 -0.00744736 2.24795532 -0.01504517 C4.7026665 -0.02965249 7.15731304 -0.03646669 9.61206055 -0.04199219 C11.31975811 -0.04774519 13.02745566 -0.0535029 14.7351532 -0.05926514 C18.31709087 -0.06977131 21.89900612 -0.07561636 25.48095703 -0.07910156 C30.06419081 -0.08458293 34.647127 -0.10860483 39.23026752 -0.13707352 C42.75879269 -0.15572532 46.28724658 -0.16090687 49.81581688 -0.16243744 C51.50506401 -0.16545918 53.19431004 -0.17347157 54.88350868 -0.18662262 C57.2506923 -0.20373523 59.6171541 -0.20179034 61.984375 -0.1953125 C63.02495811 -0.20913467 63.02495811 -0.20913467 64.08656311 -0.22323608 C68.67166118 -0.18405993 71.80844654 0.71848741 75.6862793 3.16113281 C78.35055578 7.15754753 77.9730199 10.65486233 77.96043396 15.29586792 C77.96567064 16.24228751 77.97090732 17.18870711 77.97630268 18.16380608 C77.99135695 21.34899237 77.99200903 24.53401879 77.99267578 27.71923828 C78.00029358 29.9972562 78.00872042 32.27527153 78.01789856 34.55328369 C78.03988709 40.75159612 78.04864825 46.9498592 78.053725 53.14820623 C78.05736326 57.01790932 78.06360051 60.88759938 78.07072639 64.75729752 C78.0901865 75.47006338 78.10669688 86.18281378 78.10960293 96.89559746 C78.10988428 97.92403141 78.10988428 97.92403141 78.11017132 98.97324181 C78.11053757 100.36318088 78.11090127 101.75311994 78.11126243 103.143059 C78.11153665 104.17801872 78.11153665 104.17801872 78.11181641 105.23388672 C78.11199696 105.92470129 78.1121775 106.61551586 78.11236352 107.3272642 C78.11590604 118.52380578 78.142933 129.72015512 78.18031429 140.91663001 C78.21838041 152.41012351 78.23731902 163.90349527 78.23806244 175.39705575 C78.23885691 181.85104698 78.24767386 188.30479027 78.2760601 194.75872421 C78.30215554 200.8277376 78.30449341 206.89629598 78.28840446 212.96533966 C78.28658322 215.19503137 78.29334116 217.42474873 78.30922318 219.65438461 C78.32955961 222.69427749 78.3192046 225.73255971 78.30101013 228.77243042 C78.3142101 229.65851986 78.32741007 230.5446093 78.34101003 231.45754993 C78.28016069 235.89673586 78.12471987 237.61145507 75.26415634 241.19777489 C70.74913065 244.63650037 67.06443865 244.29287508 61.45849609 244.32226562 C60.73763824 244.32723053 60.0167804 244.33219543 59.27407837 244.33731079 C56.8945418 244.3518889 54.5150719 244.35872727 52.13549805 244.36425781 C50.47646585 244.37001302 48.81743367 244.37577071 47.15840149 244.38153076 C43.68079316 244.3920285 40.20320787 244.39787913 36.72558594 244.40136719 C32.28035876 244.40684811 27.83543846 244.4308726 23.39030743 244.45933914 C19.96296818 244.47800918 16.53570221 244.48317345 13.10831642 244.48470306 C11.47013484 244.48772047 9.83195428 244.49571809 8.19382286 244.50888824 C5.89639647 244.52603999 3.59971142 244.52404663 1.30224609 244.51757812 C-0.00251175 244.52122375 -1.30726959 244.52486938 -2.65156555 244.52862549 C-6.9342802 244.09886045 -9.52109966 243.1667068 -13.3137207 241.16113281 C-15.63777913 237.67504518 -15.58004885 236.25406955 -15.62011719 232.13256836 C-15.63610458 230.89085373 -15.65209198 229.6491391 -15.66856384 228.36979675 C-15.67494131 227.01248586 -15.68033381 225.65517004 -15.68481445 224.29785156 C-15.69378334 222.9040365 -15.70290523 221.51022241 -15.71217346 220.1164093 C-15.72866339 217.19354922 -15.73636328 214.27080366 -15.73925781 211.34790039 C-15.74463538 207.61181169 -15.78228706 203.87680747 -15.82800198 200.14102459 C-15.85782535 197.2609927 -15.86498252 194.38121999 -15.86598396 191.50104713 C-15.87017753 190.12436784 -15.8825774 188.74768716 -15.90350151 187.37116051 C-16.07283133 175.26574502 -16.07283133 175.26574502 -12.93505859 171.31738281 C-9.29457283 168.32280609 -7.23500505 168.3562369 -2.69262695 168.63378906 C0.97029685 169.44576725 2.56459395 171.14970844 4.6862793 174.16113281 C5.63250131 177.06655808 5.80835558 179.70197766 5.79980469 182.74609375 C5.79968384 183.6592334 5.79956299 184.57237305 5.79943848 185.51318359 C5.79176453 186.93993408 5.79176453 186.93993408 5.78393555 188.39550781 C5.78292847 189.27609863 5.78192139 190.15668945 5.78088379 191.06396484 C5.77566063 194.34636746 5.76169936 197.62875147 5.7487793 200.91113281 C5.7281543 208.25363281 5.7075293 215.59613281 5.6862793 223.16113281 C22.5162793 223.16113281 39.3462793 223.16113281 56.6862793 223.16113281 C56.6862793 156.50113281 56.6862793 89.84113281 56.6862793 21.16113281 C39.8562793 21.16113281 23.0262793 21.16113281 5.6862793 21.16113281 C5.72108398 26.42179687 5.75588867 31.68246094 5.79174805 37.10253906 C5.80708372 40.44304501 5.82152607 43.78350732 5.83276367 47.12402344 C5.85066999 52.421723 5.87181219 57.71926643 5.91259766 63.0168457 C5.94528698 67.2897557 5.96315245 71.56249817 5.97091103 75.83552361 C5.97643739 77.46255059 5.98722903 79.08956881 6.00346947 80.71652412 C6.02537154 83.00237692 6.02824097 85.28754483 6.02685547 87.57348633 C6.0335173 88.8725441 6.04017914 90.17160187 6.04704285 91.51002502 C5.62408109 95.79060981 4.69079678 98.37063665 2.6862793 102.16113281 C-0.44306782 104.24736422 -1.55726357 104.52867845 -5.1887207 104.66113281 C-6.45329102 104.73847656 -6.45329102 104.73847656 -7.7434082 104.81738281 C-10.88115858 104.01625506 -12.26143033 102.53293296 -14.24790573 100.02990913 C-16.22703847 96.55974171 -16.0082954 93.02164361 -15.96069336 89.11401367 C-15.96945496 88.22384048 -15.97821655 87.3336673 -15.98724365 86.41651917 C-16.00917872 83.48583664 -15.99470714 80.55667334 -15.9777832 77.62597656 C-15.98115273 75.58386445 -15.98600649 73.5417543 -15.99227905 71.49964905 C-15.99964215 67.22507587 -15.98896166 62.95102593 -15.96557617 58.67651367 C-15.93707092 53.19953553 -15.95350741 47.72378149 -15.98343849 42.24684811 C-16.00151109 38.03201583 -15.99575386 33.81747356 -15.98279953 29.60263252 C-15.97946637 27.58322568 -15.98354943 25.56379243 -15.9951973 23.54441643 C-16.00790723 20.72185433 -15.98852798 17.90127213 -15.96069336 15.07885742 C-15.97081451 14.24599213 -15.98093567 13.41312683 -15.99136353 12.55502319 C-15.91337045 8.28281345 -15.68991582 6.63996053 -12.96078491 3.16627502 C-8.73011121 -0.03844604 -5.09216316 0.00813427 0 0 Z " fill="#000000" transform="translate(98.313720703125,189.8388671875)"/>
<path d="M0 0 C10.73082281 10.16873209 16.49537993 23.34250231 16.9375 38.0625 C16.6448912 52.52225173 11.2867038 65.21253795 1.1953125 75.62890625 C-9.51814084 85.19571203 -22.45395228 90.24376488 -36.81640625 89.953125 C-51.47072657 89.10632639 -64.44788682 82.78946395 -74.25 71.8125 C-83.1765574 60.22001505 -87.25448768 47.37757131 -86.25 32.8125 C-84.14624652 18.1397109 -77.42115817 5.90486232 -65.61328125 -3.2265625 C-44.55975579 -17.34233564 -19.50968755 -16.4493444 0 0 Z M-56.25 16.8125 C-58.56607874 19.26883073 -58.56607874 19.26883073 -60.25 21.8125 C-60.78625 22.555 -61.3225 23.2975 -61.875 24.0625 C-66.01917907 32.35085813 -65.91259885 40.73719823 -63.0625 49.4375 C-58.83093454 57.31696672 -54.06692755 63.56677761 -45.55859375 66.8515625 C-37.05031775 69.40293601 -29.66746919 69.16160034 -21.484375 65.61328125 C-13.25780028 61.11822171 -8.21494733 54.707342 -5.25 45.8125 C-3.22402784 37.70861135 -4.58662702 29.52019171 -8.6953125 22.2578125 C-14.14798668 14.72551375 -20.92594154 9.77371104 -30.109375 8.0390625 C-40.10028408 6.98163052 -48.93624916 9.96669057 -56.25 16.8125 Z " fill="#000000" transform="translate(164.25,91.1875)"/>
<path d="M0 0 C1.30512291 -0.0098568 1.30512291 -0.0098568 2.63661194 -0.01991272 C5.52361125 -0.03966624 8.41055851 -0.05131267 11.29760742 -0.0612793 C12.28246313 -0.06535482 13.26731884 -0.06943035 14.28201866 -0.07362938 C19.49432542 -0.09449855 24.70660579 -0.10879679 29.91894531 -0.11816406 C35.30612142 -0.12923228 40.69288489 -0.16363461 46.07991505 -0.20333576 C50.21918004 -0.22946505 54.35834617 -0.23785261 58.49768639 -0.24144554 C60.48362707 -0.24632078 62.46956307 -0.25796135 64.45542336 -0.27648354 C67.23493895 -0.30079726 70.01337966 -0.29992424 72.79296875 -0.29296875 C73.61341675 -0.30577881 74.43386475 -0.31858887 75.2791748 -0.33178711 C79.24562492 -0.29560707 81.15016667 -0.10096779 84.58964539 2.06990051 C87.39192857 5.02087462 87.49843859 7.05840061 87.73120117 10.98950195 C87.53259935 14.07886368 86.57804959 15.83462257 84.59057617 18.17700195 C80.7326802 20.7489326 77.54187489 20.47245724 73.06762695 20.4675293 C72.19739899 20.47424652 71.32717102 20.48096375 70.43057251 20.48788452 C67.54895341 20.50690846 64.66756669 20.51079097 61.78588867 20.51293945 C59.78433129 20.51936448 57.78277487 20.52609261 55.78121948 20.53311157 C51.5830467 20.54509544 47.38495627 20.54879127 43.18676758 20.54760742 C37.80743565 20.54740421 32.42863187 20.57470427 27.04942513 20.60915184 C22.91443456 20.63139079 18.77957168 20.63544588 14.64452744 20.63438797 C12.66138769 20.63674854 10.67824466 20.64559765 8.69516373 20.6610527 C5.92050469 20.68065122 3.146992 20.6748988 0.37231445 20.6628418 C-0.85600098 20.67970032 -0.85600098 20.67970032 -2.10913086 20.69689941 C-6.07458034 20.65311743 -7.96679127 20.45941163 -11.39578247 18.27163696 C-14.51187962 15.03020265 -14.74326048 12.71153396 -14.70239258 8.21606445 C-14.24687416 5.04565628 -12.65626726 3.35776175 -10.40942383 1.17700195 C-7.15683496 -0.44929248 -3.57508874 0.01163077 0 0 Z " fill="#000000" transform="translate(311.409423828125,47.822998046875)"/>
<path d="M0 0 C2.87029869 1.79393668 4.49131638 2.98263276 6 6 C6.5811138 13.08958838 6.5811138 13.08958838 4.125 16.9375 C0.64240255 20.31766811 -2.03637499 20.40798732 -6.73828125 20.33984375 C-9 20 -9 20 -12 17.9375 C-14.40813237 14.40055558 -15 12.27436594 -15 8 C-12.09343948 0.29761462 -7.71725419 -1.13727956 0 0 Z " fill="#000000" transform="translate(266,48)"/>
<path d="M0 0 C3.348157 2.37161121 4.65750859 4.01533721 6 7.875 C6 11.90306262 4.89929459 14.47273862 3 18 C-1.01858595 20.6790573 -4.27641721 20.69610694 -9 20 C-11.87029869 18.20606332 -13.49131638 17.01736724 -15 14 C-15.5811138 6.91041162 -15.5811138 6.91041162 -13.125 3.0625 C-9.22986962 -0.71806772 -5.22963138 -0.79483171 0 0 Z " fill="#000000" transform="translate(98,319)"/>
</svg>
