<?xml version="1.0" encoding="UTF-8"?>
<svg version="1.1" xmlns="http://www.w3.org/2000/svg" width="512" height="512">
<path d="M0 0 C0.90195602 -0.00701431 1.80391205 -0.01402863 2.73320007 -0.02125549 C5.63208047 -0.03868232 8.53075663 -0.04510887 11.4296875 -0.046875 C12.41955658 -0.04754974 13.40942566 -0.04822449 14.42929077 -0.04891968 C28.9391862 -0.03318338 43.02662729 0.4161495 57.3046875 3.203125 C58.65022705 3.44458252 58.65022705 3.44458252 60.02294922 3.69091797 C108.71061874 12.50090649 153.73474658 35.94419047 189.3046875 70.203125 C190.2937207 71.15131104 190.2937207 71.15131104 191.30273438 72.11865234 C200.79099055 81.26309979 209.5308919 90.56046509 217.3046875 101.203125 C218.16274902 102.35417517 219.02082201 103.50521677 219.87890625 104.65625 C225.91646146 112.84588481 231.29926052 121.34850776 236.3046875 130.203125 C236.706875 130.91033691 237.1090625 131.61754883 237.5234375 132.34619141 C250.53993849 155.46573437 259.2732395 180.61482253 264.6171875 206.578125 C264.76454346 207.28864014 264.91189941 207.99915527 265.0637207 208.73120117 C268.05012767 224.37353551 268.67949704 240.00988593 268.6171875 255.890625 C268.61445328 257.34171158 268.61445328 257.34171158 268.61166382 258.82211304 C268.56623576 273.15503477 268.05734822 287.10086417 265.3046875 301.203125 C265.14371582 302.10015137 264.98274414 302.99717773 264.81689453 303.92138672 C256.00690601 352.60905624 232.56362203 397.63318408 198.3046875 433.203125 C197.67256348 433.86248047 197.04043945 434.52183594 196.38916016 435.20117188 C187.24471271 444.68942805 177.94734741 453.4293294 167.3046875 461.203125 C166.15363733 462.06118652 165.00259573 462.91925951 163.8515625 463.77734375 C155.66192769 469.81489896 147.15930474 475.19769802 138.3046875 480.203125 C137.59747559 480.6053125 136.89026367 481.0075 136.16162109 481.421875 C113.04207813 494.43837599 87.89298997 503.171677 61.9296875 508.515625 C61.21917236 508.66298096 60.50865723 508.81033691 59.77661133 508.9621582 C44.13427699 511.94856517 28.49792657 512.57793454 12.6171875 512.515625 C11.64979645 512.51380219 10.6824054 512.51197937 9.68569946 512.51010132 C-4.64722227 512.46467326 -18.59305167 511.95578572 -32.6953125 509.203125 C-33.59233887 509.04215332 -34.48936523 508.88118164 -35.41357422 508.71533203 C-84.10124374 499.90534351 -129.12537158 476.46205953 -164.6953125 442.203125 C-165.35466797 441.57100098 -166.01402344 440.93887695 -166.69335938 440.28759766 C-176.18161555 431.14315021 -184.9215169 421.84578491 -192.6953125 411.203125 C-193.55337402 410.05207483 -194.41144701 408.90103323 -195.26953125 407.75 C-201.30708646 399.56036519 -206.68988552 391.05774224 -211.6953125 382.203125 C-212.0975 381.49591309 -212.4996875 380.78870117 -212.9140625 380.06005859 C-225.93056349 356.94051563 -234.6638645 331.79142747 -240.0078125 305.828125 C-240.22884644 304.76235229 -240.22884644 304.76235229 -240.4543457 303.67504883 C-243.44075243 288.03271576 -244.07012807 272.39636368 -244.0078125 256.515625 C-244.00598969 255.54856628 -244.00416687 254.58150757 -244.00228882 253.58514404 C-243.95691249 239.27430726 -243.54359062 225.27247195 -240.6953125 211.203125 C-240.42195068 209.82640625 -240.42195068 209.82640625 -240.14306641 208.421875 C-238.83153693 201.9705086 -237.33396213 195.57882623 -235.6953125 189.203125 C-235.50211426 188.44837891 -235.30891602 187.69363281 -235.10986328 186.91601562 C-230.47115109 169.19221954 -223.31606304 152.33842357 -214.6953125 136.203125 C-214.28990234 135.44161133 -213.88449219 134.68009766 -213.46679688 133.89550781 C-212.17939759 131.49164618 -210.87826272 129.09586105 -209.5703125 126.703125 C-209.17473145 125.97335449 -208.77915039 125.24358398 -208.37158203 124.49169922 C-201.10662224 111.40877987 -201.10662224 111.40877987 -196.6953125 109.203125 C-192.06317757 108.64799685 -188.71359123 108.5667008 -184.6953125 111.078125 C-182.19072687 113.73924724 -181.74924875 114.66376245 -181.3828125 118.328125 C-181.84472638 124.05585705 -184.32052019 128.05844899 -187.35546875 132.79296875 C-205.38047093 160.95934792 -216.28726076 193.1484617 -220.6953125 226.203125 C-220.79030029 226.8835083 -220.88528809 227.5638916 -220.9831543 228.26489258 C-223.97047264 253.05505551 -222.91600152 279.84391009 -217.6953125 304.203125 C-217.48632324 305.18297363 -217.27733398 306.16282227 -217.06201172 307.17236328 C-205.64481542 358.68230584 -175.92847414 408.0308915 -133.6953125 440.203125 C-132.84283936 440.8542627 -132.84283936 440.8542627 -131.97314453 441.51855469 C-103.29170548 463.313703 -70.97795943 478.66663075 -35.6953125 486.203125 C-34.71949219 486.41340332 -33.74367187 486.62368164 -32.73828125 486.84033203 C-2.75975246 492.97893156 30.41980376 492.64298188 60.3046875 486.203125 C61.28308594 485.99413574 62.26148438 485.78514648 63.26953125 485.56982422 C114.78149106 474.15407615 164.13137993 444.4376966 196.3046875 402.203125 C196.7387793 401.63480957 197.17287109 401.06649414 197.62011719 400.48095703 C219.4152655 371.79951798 234.76819325 339.48577193 242.3046875 304.203125 C242.62010498 302.73939453 242.62010498 302.73939453 242.94189453 301.24609375 C249.08049406 271.26756496 248.74454438 238.08800874 242.3046875 208.203125 C242.09569824 207.22472656 241.88670898 206.24632812 241.67138672 205.23828125 C230.25563865 153.72632144 200.5392591 104.37643257 158.3046875 72.203125 C157.73637207 71.7690332 157.16805664 71.33494141 156.58251953 70.88769531 C127.90108048 49.092547 95.58733443 33.73961925 60.3046875 26.203125 C58.84095703 25.88770752 58.84095703 25.88770752 57.34765625 25.56591797 C-1.3682498 13.54286522 -65.41293344 26.26142095 -115.44140625 59.00390625 C-117.44570531 60.35855256 -119.44026594 61.72790569 -121.41796875 63.12109375 C-125.83003448 66.22206148 -129.07631534 68.31118264 -134.6953125 68.203125 C-138.34263413 66.62814521 -140.87083104 64.75606258 -142.6953125 61.203125 C-143.56757509 54.44308996 -143.56757509 54.44308996 -140.62890625 50.265625 C-137.59701695 46.85434764 -134.10776815 44.48559432 -130.2578125 42.078125 C-129.52481934 41.61365967 -128.79182617 41.14919434 -128.03662109 40.6706543 C-90.00914036 16.93811765 -45.3170913 0.23630425 0 0 Z " fill="#000000" transform="translate(243.6953125,-0.203125)"/>
<path d="M0 0 C0.74535004 0.00060425 1.49070007 0.0012085 2.25863647 0.00183105 C64.29026118 0.13631696 150.13967931 9.06224344 199.25 52.1875 C200.98046875 54.3359375 200.98046875 54.3359375 202.4375 56.5625 C202.92605469 57.29210937 203.41460937 58.02171875 203.91796875 58.7734375 C208.44195882 66.97234032 208.5727178 77.13626406 206.59765625 86.171875 C203.30608486 95.2696088 196.85681517 101.92721273 188.25 106.1875 C179.40729693 109.82861303 169.18771078 109.29030354 160.4296875 105.7109375 C156.30594362 103.73518797 152.28150804 101.59399178 148.25 99.4375 C76.23538138 60.92281627 -15.86796855 58.92391605 -94.08105469 77.66333008 C-104.7193251 80.13385247 -115.51677667 80.50636636 -125.1640625 74.74609375 C-132.556345 69.41821121 -138.09956276 62.12199841 -140.234375 53.15234375 C-141.51040395 43.41324044 -139.90227441 34.59998607 -134.4453125 26.375 C-127.36870141 17.24388892 -117.58939587 14.03110348 -106.625 11.6875 C-105.664729 11.47810791 -104.70445801 11.26871582 -103.71508789 11.05297852 C-100.73010178 10.41342538 -97.74147493 9.79592716 -94.75 9.1875 C-93.87102051 9.00687012 -92.99204102 8.82624023 -92.08642578 8.64013672 C-79.12562631 6.03523412 -66.06963914 4.43272003 -52.9375 3 C-52.16816132 2.91523407 -51.39882263 2.83046814 -50.60617065 2.74313354 C-33.75605994 0.90608886 -16.94971371 -0.02597178 0 0 Z M-92.125 30.25 C-93.97822876 30.61786621 -93.97822876 30.61786621 -95.86889648 30.99316406 C-107.59018163 32.88989713 -107.59018163 32.88989713 -117.3125 38.875 C-119.18016401 43.1787475 -119.26917404 45.51493367 -118.75 50.1875 C-117.39282894 53.58042765 -116.13205406 54.90794825 -113.1875 57.0625 C-105.05606946 59.72369545 -95.5262863 56.42291789 -87.37680054 54.77572632 C-62.90820098 49.8775301 -37.71996613 46.63050809 -12.75 46.1875 C-11.66025879 46.16171875 -10.57051758 46.1359375 -9.44775391 46.109375 C50.42590153 44.83766587 113.38979916 53.67734113 165.76049805 84.49560547 C170.11119782 86.96202921 173.27037552 87.72811062 178.25 87.1875 C181.30357079 85.57429279 183.48833566 84.15689098 185.625 81.4375 C186.78222453 77.27149167 187.45578823 73.33757285 185.28637695 69.46923828 C180.73137698 63.94896736 175.27590453 61.04151588 168.9375 57.875 C167.83591553 57.31594971 166.73433105 56.75689941 165.59936523 56.1809082 C125.53554602 36.21306198 81.72358953 25.79590483 37.25 22.1875 C36.53038086 22.12820312 35.81076172 22.06890625 35.06933594 22.0078125 C-7.33390322 18.70825521 -50.48143306 21.96727298 -92.125 30.25 Z " fill="#000000" transform="translate(225.75,141.8125)"/>
<path d="M0 0 C0.6919043 0.36077637 1.38380859 0.72155273 2.09667969 1.09326172 C10.55631037 5.62625945 16.34536422 10.86540895 19.375 20.125 C21.73156216 29.11785792 20.58966184 35.85972705 16.5625 44.1875 C12.48496249 50.39543633 6.72605827 55.02177308 -0.4375 57.1875 C-9.98794482 59.14992017 -16.77402696 57.17614567 -25.3125 52.75 C-87.54703375 20.60903978 -160.43227032 17.71275797 -227.91015625 32.96826172 C-237.24404632 35.00441129 -244.92082873 34.8504118 -253.4375 30.1875 C-261.15273969 24.82268617 -265.51424773 18.48321929 -267.4375 9.1875 C-268.41681424 1.2491194 -266.4181437 -5.52598022 -261.859375 -12.08203125 C-248.87012332 -27.85051471 -223.35565711 -28.05818669 -204.4375 -30.8125 C-203.28459473 -30.98201172 -202.13168945 -31.15152344 -200.94384766 -31.32617188 C-133.03019408 -40.83506978 -61.03158696 -31.89864425 0 0 Z M-202.4375 -9.8125 C-204.04915039 -9.57974365 -204.04915039 -9.57974365 -205.69335938 -9.34228516 C-212.63967144 -8.32156435 -219.54604636 -7.15417628 -226.4375 -5.8125 C-227.68249268 -5.57080078 -227.68249268 -5.57080078 -228.95263672 -5.32421875 C-231.20539544 -4.87081016 -233.44661548 -4.3835455 -235.6875 -3.875 C-236.90953125 -3.59785156 -238.1315625 -3.32070312 -239.390625 -3.03515625 C-243.01039219 -1.58260865 -244.40351186 -0.10705857 -246.4375 3.1875 C-246.51700691 7.08333853 -245.89151257 8.65093969 -243.375 11.625 C-238.09971673 14.43100174 -231.61312607 12.0630735 -225.94506836 10.88012695 C-203.85577486 6.31669727 -180.98729969 3.65415856 -158.4375 3.1875 C-156.61992187 3.12755859 -156.61992187 3.12755859 -154.765625 3.06640625 C-108.31186532 2.21907372 -57.91196543 9.95328706 -17.3125 33.6875 C-12.68719826 36.29901652 -9.70938054 37.03476652 -4.4375 36.1875 C-1.74550432 34.62440574 -1.48369306 33.31741799 -0.4375 30.375 C-0.4375 26.66262277 -1.46126889 25.40212809 -3.86767578 22.67944336 C-6.55116874 20.1290817 -9.5859306 18.52883242 -12.875 16.875 C-13.60799316 16.49819092 -14.34098633 16.12138184 -15.09619141 15.7331543 C-51.87842439 -2.74986034 -94.03265135 -12.81973796 -135.2109375 -13.015625 C-136.20481979 -13.02259399 -137.19870209 -13.02956299 -138.22270203 -13.03674316 C-141.41934491 -13.05405556 -144.61581215 -13.06046509 -147.8125 -13.0625 C-149.45338089 -13.06401062 -149.45338089 -13.06401062 -151.12741089 -13.06555176 C-168.43493215 -13.05478296 -185.29758139 -12.37169673 -202.4375 -9.8125 Z " fill="#000000" transform="translate(375.4375,255.8125)"/>
<path d="M0 0 C1.06089844 0.52464844 2.12179687 1.04929687 3.21484375 1.58984375 C11.2321741 5.64693575 16.68807762 10.45872649 20 19 C21.79823307 27.29953724 20.79165521 34.64837493 16.1875 41.875 C11.18376238 48.69064262 6.16521514 51.22271342 -2 53 C-10.86283078 53.94958901 -18.18606858 50.56485946 -25.75 46.3125 C-74.68253627 19.09682193 -139.98114868 19.77399537 -193.00268555 32.60229492 C-200.75572599 34.14607965 -208.18277951 32.93095945 -214.9453125 28.81640625 C-221.00800852 24.18408656 -224.41792222 18.12660016 -225.48046875 10.59375 C-225.83933246 1.6706523 -224.18315501 -4.86005954 -218.53125 -11.8046875 C-174.58943594 -55.10029842 -46.66392792 -24.97432567 0 0 Z M-178.875 -2.5625 C-180.75626587 -2.25469604 -180.75626587 -2.25469604 -182.67553711 -1.94067383 C-194.06166757 -0.70786359 -194.06166757 -0.70786359 -204 4 C-204.33340471 6.95804573 -204.33340471 6.95804573 -204 10 C-200.03012868 12.64658088 -197.46246286 11.78058826 -193 11 C-191.47826172 10.73920654 -191.47826172 10.73920654 -189.92578125 10.47314453 C-187.56709169 10.06400468 -185.20905187 9.65110712 -182.8515625 9.23510742 C-127.50218322 -0.43068492 -61.46848509 -0.47414482 -11.70361328 29.64990234 C-8.99346729 31.23642576 -7.36381205 32.02273825 -4.1875 31.82421875 C-1.89407388 31.16036372 -1.89407388 31.16036372 -0.5 29.25 C0.26308966 26.90325922 0.26308966 26.90325922 -1.16796875 24.53417969 C-3.21009707 21.70938066 -4.70349141 20.71917454 -7.8125 19.203125 C-8.79154297 18.72367432 -9.77058594 18.24422363 -10.77929688 17.75024414 C-11.84212891 17.25516357 -12.90496094 16.76008301 -14 16.25 C-15.10923828 15.72849365 -16.21847656 15.2069873 -17.36132812 14.66967773 C-67.92220326 -8.4946043 -124.5583604 -11.47343949 -178.875 -2.5625 Z " fill="#000000" transform="translate(346,319)"/>
<path d="M0 0 C2.79659888 2.18271132 3.76939596 3.66006916 4.37109375 7.15625 C4.58377008 11.02309243 4.54943626 13.15184111 2.390625 16.484375 C-0.3801132 19.3999884 -3.390219 21.58369345 -6.75 23.75 C-7.41265869 24.18119141 -8.07531738 24.61238281 -8.75805664 25.05664062 C-10.82840018 26.38828949 -12.91058312 27.6985097 -15 29 C-15.9288501 29.58104492 -15.9288501 29.58104492 -16.87646484 30.17382812 C-36.7533344 42.420493 -68.95265814 59.26730188 -93 56 C-95.87029869 54.20606332 -97.49131638 53.01736724 -99 50 C-99.68245021 43.17549793 -99.68245021 43.17549793 -97.2265625 38.9453125 C-93.26837748 34.51661308 -87.56647657 33.88596341 -82 32.625 C-57.18369586 26.44724717 -34.80969424 16.57439166 -14.03515625 1.58203125 C-9.35548733 -1.52713654 -5.23106796 -1.70666117 0 0 Z " fill="#000000" transform="translate(382,408)"/>
<path d="M0 0 C2.75569447 2.18159145 4.43588747 3.87177494 6 7 C6.12370115 11.57694247 5.87838473 14.99613174 2.8125 18.5 C-0.36713357 20.19580457 -2.38737212 20.92774744 -6 21 C-10.34986291 19.5500457 -12.4325645 18.85115325 -15 15 C-15.73965025 10.40728797 -15.60961194 6.97537911 -13.125 3 C-9.21191333 -0.6829051 -5.19128557 -0.82486748 0 0 Z " fill="#000000" transform="translate(261,447)"/>
<path d="M0 0 C3.53025676 3.05955586 5.83016667 5.08937502 6.25 9.8125 C5.9670624 13.41995442 5.15434322 15.12754237 3 18 C-1.00254616 20.66836411 -4.29313299 20.8340238 -9 20 C-11.75569447 17.81840855 -13.43588747 16.12822506 -15 13 C-15.38112297 8.96009652 -15.4240682 6.70678033 -13.3125 3.1875 C-9.06798265 -0.82758398 -5.63479356 -1.76087299 0 0 Z " fill="#000000" transform="translate(81,78)"/>
</svg>
