<?xml version="1.0" encoding="UTF-8"?>
<svg version="1.1" xmlns="http://www.w3.org/2000/svg" width="512" height="512">
<path d="M0 0 C36.3 0 72.6 0 110 0 C110.33 7.26 110.66 14.52 111 22 C113.83601061 49.65110348 125.71080171 75.58236799 147 94 C169.16123415 111.74010964 193.12343051 118.55959393 221.1875 120.0625 C223.3080112 120.17823424 225.42833594 120.29590767 227.54841614 120.41929626 C229.44239896 120.52931433 231.33679397 120.63216791 233.23120117 120.73461914 C236 121 236 121 237 122 C237.09543095 123.39143689 237.12188575 124.78768367 237.12025452 126.18238831 C237.12231651 127.53492203 237.12231651 127.53492203 237.12442017 128.91477966 C237.12082489 129.91171341 237.11722961 130.90864716 237.11352539 131.93579102 C237.11367142 132.97956909 237.11381744 134.02334717 237.1139679 135.09875488 C237.11326826 138.56715943 237.10547353 142.03551103 237.09765625 145.50390625 C237.09579225 147.90144318 237.09436826 150.2989805 237.09336853 152.69651794 C237.08954194 159.02095584 237.07971046 165.34537094 237.06866455 171.6697998 C237.05845345 178.11775402 237.05387156 184.56571191 237.04882812 191.01367188 C237.03808832 203.675791 237.02120119 216.33789429 237 229 C231.27033293 229.04062196 225.54075245 229.0698731 219.81097412 229.08926392 C217.867844 229.09736046 215.92472354 229.10839165 213.98162842 229.12258911 C198.91950258 229.22976697 184.72616448 228.45971395 170 225 C169.06397949 224.78569336 168.12795898 224.57138672 167.16357422 224.35058594 C147.69057968 219.77458209 129.67802574 212.2544234 112 203 C111.34 202.67 110.68 202.34 110 202 C110.01879211 203.80115768 110.01879211 203.80115768 110.03796387 205.63870239 C110.1581784 217.19123988 110.27580221 228.74380151 110.39115143 240.29638863 C110.45046972 246.22966949 110.51057254 252.1629398 110.57275391 258.09619141 C110.72800851 272.95630104 110.86515264 287.81643758 110.97497559 302.67695618 C110.99974217 305.96576255 111.02668348 309.2545465 111.05371094 312.54333496 C111.09484705 317.74197091 111.12347264 322.94054856 111.14305115 328.13930893 C111.15162826 330.03383192 111.16361345 331.92834364 111.17958069 333.82281876 C111.31766301 350.86213414 110.93233845 368.43117548 106.875 385.0625 C106.66327148 385.95477295 106.45154297 386.8470459 106.23339844 387.76635742 C99.06984574 416.45331301 84.6221094 440.24474035 65 462 C64.32453125 462.74894531 63.6490625 463.49789063 62.953125 464.26953125 C56.94331692 470.57469314 49.98230221 475.82731437 43 481 C42.12794922 481.64654541 42.12794922 481.64654541 41.23828125 482.30615234 C16.97726443 500.00442782 -14.86520911 512.01663964 -45.109375 512.203125 C-45.86963486 512.21013931 -46.62989471 512.21715363 -47.41319275 512.22438049 C-49.85885581 512.24182224 -52.30427699 512.24823435 -54.75 512.25 C-55.58391266 512.25067474 -56.41782532 512.25134949 -57.27700806 512.25204468 C-69.43139735 512.2363869 -81.13690399 511.87512339 -93 509 C-93.71462402 508.83902832 -94.42924805 508.67805664 -95.16552734 508.51220703 C-124.36104652 501.83106052 -150.59399708 486.72644727 -172 466 C-172.50273437 465.52304687 -173.00546875 465.04609375 -173.5234375 464.5546875 C-203.07891575 436.49948733 -221.16815773 396.85186035 -222.34765625 356.0234375 C-222.95485387 327.86822742 -218.51166841 301.43268956 -206 276 C-205.69336426 275.36900391 -205.38672852 274.73800781 -205.07080078 274.08789062 C-186.16633594 235.63215189 -151.70159155 206.0152589 -111.43359375 191.75390625 C-81.71311932 181.82557992 -50.7646361 180.78970175 -20 186 C-19.34 186.33 -18.68 186.66 -18 187 C-18 224.62 -18 262.24 -18 301 C-24.3453946 299.73092108 -30.18299747 298.45783582 -36.25 296.4375 C-52.06438667 291.20165576 -66.00947513 292.07436015 -81.125 299.125 C-94.63331355 306.04672173 -103.28267966 316.8516869 -108.5 331.0625 C-112.26795215 345.0360266 -111.23599349 359.95405342 -105 373 C-103.31186376 375.78578706 -101.55153223 378.38062713 -99.55078125 380.94921875 C-98 383 -98 383 -97.04296875 385.14453125 C-95.71233635 387.51176117 -94.45097939 387.91828284 -92 389 C-90.79512443 389.9150614 -89.6082448 390.85415814 -88.4375 391.8125 C-76.66812908 400.79323266 -62.0811219 404.22823612 -47.5 402.375 C-33.2592635 399.81984393 -19.97423615 392.46355607 -11 381 C-3.19526959 368.39004354 -0.69875762 357.26267182 -0.7215271 342.48486328 C-0.71651982 341.00540201 -0.71064276 339.52594348 -0.70397437 338.04648876 C-0.68821265 333.99418759 -0.6847458 329.94195582 -0.68332577 325.8896277 C-0.67962503 321.51479265 -0.66446618 317.13999539 -0.65071106 312.7651825 C-0.62845559 305.18986407 -0.613432 297.61455911 -0.60334396 290.03921509 C-0.58874793 279.08659315 -0.56320849 268.13401815 -0.53501268 257.18142378 C-0.4895615 239.41083793 -0.45293976 221.64024531 -0.421875 203.86962891 C-0.39168261 186.60887464 -0.35732916 169.34813691 -0.31738281 152.08740234 C-0.31492126 151.02314671 -0.31245972 149.95889108 -0.30992357 148.86238527 C-0.29754884 143.52323675 -0.28509233 138.18408842 -0.27259517 132.84494019 C-0.16905243 88.56331301 -0.08146832 44.28167437 0 0 Z M31 30 C30.99635437 34.08176605 30.99270874 38.1635321 30.98895264 42.36898804 C30.95363041 79.85229936 30.8985466 117.33554029 30.82207905 154.81879099 C30.81206232 159.73759214 30.80221807 164.65639361 30.79248047 169.57519531 C30.78956841 171.04398132 30.78956841 171.04398132 30.78659752 172.54243977 C30.75562797 188.37003279 30.73861098 204.19761132 30.72680578 220.0252289 C30.71436803 236.28171535 30.68680761 252.53812617 30.64538693 268.79456484 C30.62032647 278.81504236 30.60687726 288.83539434 30.60857043 298.85590364 C30.60860032 305.73960692 30.59386034 312.6231829 30.56783572 319.50683652 C30.55327617 323.47056767 30.5449117 327.43403782 30.55419731 331.39779091 C30.63520265 370.41754294 30.63520265 370.41754294 22.1875 385.5 C21.84203125 386.15105713 21.4965625 386.80211426 21.140625 387.47290039 C18.17266291 392.95153554 14.86230146 398.10545762 11 403 C10.43152344 403.74378906 9.86304688 404.48757813 9.27734375 405.25390625 C-2.88032952 420.09607637 -23.01734493 430.73045447 -42 433 C-68.01966514 435.05076981 -91.60172023 430.62909283 -112 413.625 C-122.98582865 404.02101544 -131.04362027 392.58745879 -136.25 379 C-136.61967896 378.03960815 -136.61967896 378.03960815 -136.99682617 377.05981445 C-143.61458297 358.93132409 -143.37273546 337.13938753 -137 319 C-136.62617188 317.92878906 -136.25234375 316.85757812 -135.8671875 315.75390625 C-131.42530929 304.20796454 -124.63374156 294.7803246 -116 286 C-115.31292969 285.30003906 -114.62585938 284.60007812 -113.91796875 283.87890625 C-95.9643208 266.79129698 -72.88144335 262.59209622 -49 261 C-49 245.49 -49 229.98 -49 214 C-62.24755027 213.88949693 -62.24755027 213.88949693 -75.25 215.125 C-76.12422607 215.25624268 -76.99845215 215.38748535 -77.89916992 215.52270508 C-93.657068 218.08235648 -108.13114781 223.13341735 -122 231 C-122.58894043 231.33290039 -123.17788086 231.66580078 -123.78466797 232.00878906 C-131.40193465 236.37553819 -138.31853614 241.31731166 -145 247 C-145.70898438 247.58652344 -146.41796875 248.17304688 -147.1484375 248.77734375 C-151.92664105 252.81410192 -156.0480753 257.1572726 -160 262 C-160.7734375 262.93585938 -161.546875 263.87171875 -162.34375 264.8359375 C-185.54686938 293.53429429 -193.39345371 328.22152071 -190.81396484 364.62548828 C-187.70909792 393.80870795 -172.81334492 420.00856431 -153 441 C-152.06607422 442.01320313 -152.06607422 442.01320313 -151.11328125 443.046875 C-126.90332918 468.42418325 -91.65723701 480.93867607 -57.14501953 481.96386719 C-26.80336897 482.4749717 4.43898665 472.27407497 28 453 C28.84087158 452.31502441 28.84087158 452.31502441 29.69873047 451.61621094 C36.68060068 445.89275525 43.47186744 440.18289507 49 433 C49.39751465 432.49694336 49.7950293 431.99388672 50.20458984 431.47558594 C74.00506995 401.20616833 80.2165666 368.12570993 80.09375 330.390625 C80.08992172 328.1369022 80.08630821 325.88317902 80.08288574 323.62945557 C80.0182027 291.04740301 79.7744314 258.46551797 79.55461884 225.88423014 C79.49277391 216.70798519 79.43295338 207.53172732 79.37324238 198.35546827 C79.25096275 179.5702978 79.12632972 160.78514366 79 142 C80.42913701 142.94348042 81.85703757 143.88883391 83.28442383 144.83496094 C84.07972 145.36120056 84.87501617 145.88744019 85.69441223 146.42962646 C88.81756631 148.55685778 91.75169066 150.87473124 94.6875 153.25 C122.77989346 175.55832875 153.3472959 191.0430644 189 197 C189.78632813 197.13148438 190.57265625 197.26296875 191.3828125 197.3984375 C196.34335906 198.11820308 200.88985034 198 206 198 C206 182.49 206 166.98 206 151 C200.39 150.01 194.78 149.02 189 148 C162.6276411 141.679352 140.84043152 130.73643295 121 112 C120.19949219 111.27554688 119.39898437 110.55109375 118.57421875 109.8046875 C95.88025709 88.44992294 86.25768307 59.72399457 80 30 C63.83 30 47.66 30 31 30 Z " fill="#000000" transform="translate(251,0)"/>
</svg>
