<?xml version="1.0" encoding="UTF-8"?>
<svg version="1.1" xmlns="http://www.w3.org/2000/svg" width="512" height="512">
<path d="M0 0 C6.00346916 0.0080343 12.00693369 0.00715835 18.01040664 0.00672468 C29.89574784 0.00622919 41.78106169 0.01524844 53.66639304 0.0299089 C65.11887206 0.04402744 76.57132708 0.05107743 88.02381492 0.05041671 C89.08535793 0.05035677 89.08535793 0.05035677 90.16834626 0.05029563 C91.22832442 0.0502351 91.22832442 0.0502351 92.30971628 0.05017334 C105.48259761 0.04947905 118.65546906 0.05539332 131.82834715 0.06432656 C136.43320488 0.0673066 141.03806071 0.06839087 145.6429193 0.06885886 C151.86088856 0.06987536 158.07883348 0.0760764 164.29679465 0.086025 C166.55519246 0.08890409 168.81359307 0.09018492 171.07199264 0.08959746 C191.11758715 0.08636065 211.31202092 0.17316871 231.24769187 2.48571944 C232.35838035 2.61285323 233.46906882 2.73998702 234.61341453 2.87097335 C260.93841653 6.11114769 287.7734313 13.69381255 305.55628562 34.63806319 C326.7367396 62.97810725 325.82072458 98.98138934 325.76634288 132.70204711 C325.76119994 136.90199436 325.76599693 141.10193386 325.76911521 145.30188155 C325.77273112 152.34852863 325.76801876 159.39513349 325.75843406 166.44177413 C325.74755414 174.53295027 325.75108141 182.62402553 325.76208687 190.71519923 C325.7712281 197.72223518 325.77241195 204.72924116 325.76720953 211.73628116 C325.76412705 215.89495467 325.76357577 220.05358113 325.77028251 224.21225142 C325.82712056 264.97083165 325.82712056 264.97083165 321.74769187 284.42321944 C321.49608298 285.6442839 321.49608298 285.6442839 321.23939109 286.89001632 C317.66244739 303.34587526 311.5399135 319.34923669 300.49769187 332.23571944 C299.85702781 333.00915694 299.21636374 333.78259444 298.55628562 334.57946944 C294.30214025 339.57455207 290.00100101 343.6645205 284.49769187 347.23571944 C283.54765281 347.86220382 282.59761374 348.48868819 281.61878562 349.13415694 C258.78617923 363.20572782 231.24857203 366.68045396 204.90404868 367.78914046 C203.41338147 367.85229114 203.41338147 367.85229114 201.89259976 367.91671759 C190.59428861 368.3589495 179.30138122 368.38391376 167.99598289 368.38098311 C165.64060007 368.38398518 163.28521774 368.38739006 160.92983603 368.39116073 C154.60280227 368.39989896 148.27578208 368.4023345 141.94874287 368.40297651 C137.97554028 368.40369289 134.00233993 368.40577639 130.02913833 368.40847373 C116.82476832 368.4172515 103.62040634 368.42189764 90.41603339 368.42114326 C89.35491015 368.42108332 89.35491015 368.42108332 88.27235007 368.42102218 C87.56404054 368.4209813 86.855731 368.42094042 86.12595754 368.4208983 C74.67093922 368.42049264 63.21595389 368.43004955 51.76094509 368.44416054 C39.9130101 368.45863688 28.06509108 368.46542461 16.21714705 368.46456677 C9.60003879 368.46423864 2.98296031 368.46701729 -3.63414216 368.47774482 C-117.45648634 368.64917702 -117.45648634 368.64917702 -152.50230813 339.23571944 C-153.19324563 338.70333663 -153.88418313 338.17095382 -154.59605813 337.62243819 C-176.21434799 320.33638499 -183.01459854 289.12188829 -186.01732278 263.03199935 C-186.71707842 255.89768412 -186.65844231 248.75475364 -186.66344094 241.59436202 C-186.66807891 240.03416493 -186.67310485 238.47396895 -186.67848611 236.91377425 C-186.69152528 232.69808091 -186.69803936 228.48240344 -186.70249677 224.26669312 C-186.70544365 221.62080928 -186.70955154 218.97492962 -186.71400094 216.32904792 C-186.7276588 208.01618569 -186.7373316 199.70333321 -186.74120283 191.39046055 C-186.74566769 181.86009283 -186.76314935 172.32986966 -186.79220343 162.79954582 C-186.81398588 155.39182444 -186.82391598 147.9841432 -186.82524395 140.57639021 C-186.82628101 136.1720692 -186.83194846 131.76788433 -186.85006356 127.36359763 C-186.98938951 91.4059731 -186.76161557 55.8151345 -160.75230813 28.11071944 C-153.24472567 20.83458461 -144.09208696 16.17634695 -134.50230813 12.23571944 C-133.68762063 11.88767257 -132.87293313 11.53962569 -132.03355813 11.18103194 C-113.95233249 3.98202544 -93.40055266 2.11615109 -74.15391946 1.12512374 C-73.35787163 1.08315159 -72.56182381 1.04117944 -71.74165332 0.99793541 C-47.84592912 -0.22238093 -23.91945926 -0.03891804 0 0 Z M-150.50621438 49.35681319 C-169.06450982 71.20189098 -165.81716851 107.1398009 -165.77095914 133.92021608 C-165.76580309 137.85896896 -165.77061676 141.79771376 -165.77373147 145.73646712 C-165.77734415 152.34504055 -165.77264418 158.95356891 -165.76305032 165.56213546 C-165.75217557 173.13922133 -165.75569525 180.71619943 -165.76670313 188.29328269 C-165.77585925 194.86555469 -165.77702099 201.43779476 -165.77182579 208.0100711 C-165.76875071 211.90610524 -165.7681704 215.80208921 -165.77489877 219.69811988 C-166.74095667 269.0299664 -166.74095667 269.0299664 -147.50230813 313.23571944 C-146.51617532 314.46355147 -146.51617532 314.46355147 -145.51012063 315.71618819 C-127.60309947 336.77764903 -100.00066672 343.60906263 -73.45560098 345.76349521 C-67.17324697 346.23344953 -60.93795827 346.37901412 -54.64024758 346.36943221 C-53.52098004 346.37169777 -52.4017125 346.37396332 -51.24852777 346.37629753 C-47.53753749 346.38257413 -43.82658434 346.38181228 -40.11558938 346.38098311 C-37.43841823 346.38397861 -34.76124987 346.38735434 -32.08407998 346.39116073 C-25.58902986 346.39942612 -19.09398882 346.40221372 -12.59893388 346.4027731 C-7.31147497 346.40325033 -2.02401903 346.40531532 3.26343894 346.40847373 C18.29807591 346.41726993 33.33270577 346.42189485 48.36734533 346.42114326 C49.17590168 346.4211033 49.98445803 346.42106334 50.81751609 346.42102218 C51.62707511 346.4209813 52.43663414 346.42094042 53.27072525 346.4208983 C66.3730732 346.42049236 79.47539234 346.43005135 92.57773197 346.44416054 C106.07398507 346.45857766 119.57022418 346.46542777 133.06648517 346.46456677 C140.62627927 346.46423658 148.18604319 346.46690458 155.7458303 346.47774482 C162.18540926 346.48692049 168.62494437 346.48896792 175.06452709 346.48223539 C178.34008499 346.47900508 181.61554303 346.47990537 184.89109588 346.48758864 C217.43852068 346.55892473 255.33394249 346.17794383 280.68519187 322.67321944 C302.41648538 299.9400062 304.65386789 263.7332014 304.64295554 234.06799483 C304.64595848 232.7141019 304.64936355 231.36020982 304.65313315 230.00631881 C304.66186553 226.37141726 304.66430676 222.73653933 304.66494894 219.1016283 C304.66566601 216.81620349 304.66781263 214.53078445 304.67044616 212.24536109 C304.67966651 204.23066881 304.68378553 196.21599302 304.6829946 188.20129561 C304.68239585 180.79876931 304.6929164 173.39631636 304.70873827 165.99380857 C304.72193708 159.5838746 304.72717334 153.17396421 304.72653919 146.76401681 C304.72628765 142.96005891 304.72894373 139.15616623 304.73971725 135.3522222 C305.94630576 86.37168155 305.94630576 86.37168155 284.54066062 44.14978194 C259.40920593 19.81097054 215.5893861 22.08342694 183.37073874 22.09045577 C180.62607797 22.08800002 177.88141966 22.0840841 175.13676047 22.08027816 C168.48042034 22.07201605 161.82408906 22.06922532 155.16774422 22.06866578 C149.74873889 22.06818842 144.32973645 22.06612274 138.91073203 22.06296515 C123.49970621 22.05417 108.08868732 22.04954389 92.67765898 22.05029563 C91.84902178 22.05033558 91.02038459 22.05037554 90.16663718 22.05041671 C88.92213891 22.05047803 88.92213891 22.05047803 87.65249926 22.05054059 C74.22433116 22.05094654 60.79619118 22.04138695 47.3680312 22.02727834 C33.53386795 22.01285951 19.69971836 22.0060112 5.86554742 22.00687212 C-1.88261725 22.00720224 -9.63075246 22.00453726 -17.3789103 21.99369407 C-23.97873448 21.98451612 -30.57851586 21.9824728 -37.17834371 21.98920349 C-40.53505657 21.99243265 -43.89162183 21.99153681 -47.24833703 21.98385024 C-103.59363737 21.81386259 -103.59363737 21.81386259 -150.50621438 49.35681319 Z " fill="#000000" transform="translate(186.50230813026428,71.76428055763245)"/>
<path d="M0 0 C0.57733887 0.29600098 1.15467773 0.59200195 1.74951172 0.89697266 C5.51820643 2.84078566 9.2635284 4.8265573 13.00390625 6.82421875 C19.74058451 10.41064337 26.53012726 13.8929421 33.3187561 17.37963867 C53.99798254 28.00119531 53.99798254 28.00119531 64.00146484 33.31762695 C67.98924578 35.43263113 71.99279628 37.51141664 76.01937866 39.55180359 C78.45373634 40.78590452 80.8845706 42.02687527 83.31549072 43.26773071 C85.06608971 44.15755604 86.82178532 45.03733245 88.57763672 45.91674805 C99.60232213 51.54961472 107.91060851 56.50417339 112.25 68.4375 C113.93855043 76.45811454 113.30136461 83.87257178 109 91 C103.22295759 97.20502997 96.66690638 101.16299799 89.125 104.875 C87.07269198 105.91492129 85.02061165 106.95529202 82.96875 107.99609375 C81.95683594 108.50382324 80.94492187 109.01155273 79.90234375 109.53466797 C75.7811592 111.61536696 71.7028333 113.77344489 67.625 115.9375 C60.26544485 119.82149065 52.88509551 123.66483121 45.5 127.5 C38.03239413 131.37836639 30.57005694 135.26600408 23.125 139.1875 C22.37387939 139.58259766 21.62275879 139.97769531 20.84887695 140.38476562 C16.83112902 142.50023822 12.82061799 144.62854023 8.81640625 146.76953125 C7.95837402 147.22626221 7.1003418 147.68299316 6.21630859 148.15356445 C4.58046374 149.02455155 2.94653505 149.89915122 1.31494141 150.77807617 C-7.26078709 155.33504151 -14.97628397 157.70488456 -24.6875 155.34765625 C-31.49725146 152.92894879 -36.67695222 149.29228962 -40.16197968 142.85301304 C-43.01764611 136.14755615 -43.57273632 130.32273894 -43.51757812 123.08374023 C-43.5245874 121.93606171 -43.53159668 120.78838318 -43.53881836 119.60592651 C-43.55631845 115.83989748 -43.54480395 112.07462945 -43.53125 108.30859375 C-43.533947 105.67643592 -43.53783115 103.04427907 -43.54284668 100.41212463 C-43.55009887 94.90723534 -43.54059863 89.40256156 -43.52148438 83.89770508 C-43.49970919 77.55366016 -43.50678102 71.21012944 -43.52879 64.86609691 C-43.54919895 58.73538547 -43.54695064 52.60490014 -43.53526306 46.47416878 C-43.53260177 43.87752268 -43.53584441 41.28086339 -43.54518127 38.68423271 C-43.55537957 35.05142694 -43.53979843 31.41959852 -43.51757812 27.78686523 C-43.52567505 26.72219528 -43.53377197 25.65752533 -43.54211426 24.56059265 C-43.45170004 16.55102334 -41.87748858 10.32017913 -36.5625 4.1875 C-35.716875 3.465625 -34.87125 2.74375 -34 2 C-32.7934375 0.9171875 -32.7934375 0.9171875 -31.5625 -0.1875 C-22.02706129 -6.9320786 -9.7862238 -5.01823859 0 0 Z M-20.15713501 18.3434906 C-23.0421388 22.50225411 -22.54090268 26.55841277 -22.48583984 31.50415039 C-22.48963654 32.57280838 -22.49343323 33.64146637 -22.49734497 34.74250793 C-22.50475952 38.2778551 -22.48335571 41.81238202 -22.4609375 45.34765625 C-22.4585537 47.80097863 -22.45764762 50.25430286 -22.4581604 52.70762634 C-22.45503091 57.84987815 -22.43845258 62.99185145 -22.41162109 68.1340332 C-22.37762341 74.73416416 -22.36999294 81.33398916 -22.37151146 87.93419743 C-22.37096833 92.99986201 -22.36001056 98.06545935 -22.34550858 103.13110161 C-22.33913284 105.56523568 -22.33519987 107.99937739 -22.33372116 110.43351936 C-22.32939747 113.83089375 -22.31191673 117.22793996 -22.29052734 120.62524414 C-22.29143372 121.63675537 -22.29234009 122.6482666 -22.29327393 123.69042969 C-22.28474396 124.61432999 -22.27621399 125.53823029 -22.26742554 126.49012756 C-22.26407385 127.29334474 -22.26072216 128.09656191 -22.25726891 128.924119 C-22.11947481 131.30628759 -22.11947481 131.30628759 -20 134 C-18.29498397 135.06502562 -18.29498397 135.06502562 -16 135 C-13.50596587 133.98393286 -11.25561237 132.91608775 -8.89453125 131.6484375 C-8.19471634 131.28535492 -7.49490143 130.92227234 -6.77388 130.54818726 C-5.27717354 129.77113849 -3.78296907 128.98925486 -2.29107666 128.20300293 C0.69925938 126.63283154 3.70881355 125.10179459 6.71893311 123.56999207 C10.58882847 121.59879762 14.45012891 119.61088521 18.3125 117.625 C19.53214447 116.99837967 19.53214447 116.99837967 20.77642822 116.35910034 C31.07511311 111.06713855 41.36011428 105.75247655 51.58984375 100.328125 C56.00380179 97.98957706 60.44075886 95.69617404 64.87719727 93.40063477 C68.75290296 91.38934912 72.61814144 89.35861626 76.48046875 87.32177734 C78.68779587 86.16378616 80.90480122 85.02752504 83.125 83.89453125 C84.218125 83.31058594 85.31125 82.72664063 86.4375 82.125 C87.34371094 81.65320313 88.24992187 81.18140625 89.18359375 80.6953125 C91.23962519 79.06168314 91.23962519 79.06168314 91.84765625 76.1796875 C90.67553172 71.78287013 88.51202908 70.76574121 84.70996094 68.48242188 C80.07231457 65.94550397 75.38019051 63.5585652 70.625 61.25 C68.47448632 60.19037166 66.32475398 59.12915623 64.17578125 58.06640625 C63.12213379 57.54578613 62.06848633 57.02516602 60.98291016 56.48876953 C56.89385168 54.44792172 52.84828945 52.33134506 48.8125 50.1875 C39.62924756 45.31575068 30.39959657 40.53554196 21.15991211 35.77197266 C14.98903057 32.58908147 8.82788467 29.3898253 2.6875 26.1484375 C1.53910645 25.54427002 0.39071289 24.94010254 -0.79248047 24.31762695 C-2.97124152 23.17014613 -5.14746725 22.01783506 -7.32080078 20.86010742 C-8.29001465 20.35068604 -9.25922852 19.84126465 -10.2578125 19.31640625 C-11.1048877 18.86724854 -11.95196289 18.41809082 -12.82470703 17.95532227 C-15.84474023 16.62901588 -17.34060002 16.58931746 -20.15713501 18.3434906 Z " fill="#000000" transform="translate(232,178)"/>
<path d="M0 0 C0.67619957 -0.00297112 1.35239914 -0.00594224 2.04908961 -0.0090034 C4.31982282 -0.01768994 6.59050331 -0.01919861 8.86125183 -0.02069092 C10.48740756 -0.02531913 12.1135622 -0.03034379 13.73971558 -0.03573608 C18.16128697 -0.04886185 22.58284318 -0.05530539 27.00443101 -0.05974674 C29.76656375 -0.06267719 32.52869233 -0.06678195 35.29082298 -0.07125092 C43.93204473 -0.08492633 52.57325699 -0.09459276 61.2144888 -0.09845281 C71.19109782 -0.10293378 81.16756984 -0.12048331 91.1441372 -0.1494534 C98.85463391 -0.17106641 106.56509206 -0.18115688 114.27561873 -0.18249393 C118.88126654 -0.18354223 123.48678558 -0.18945543 128.0924015 -0.20731354 C132.42540407 -0.22378763 136.75818098 -0.22595298 141.09120369 -0.21717453 C142.68028619 -0.2164038 144.2693808 -0.22075166 145.85843277 -0.23063278 C148.0306461 -0.24334645 150.20205951 -0.23747935 152.37426758 -0.22705078 C153.58898145 -0.22851734 154.80369532 -0.2299839 156.0552187 -0.2314949 C159.79870047 0.18758244 162.18553329 1.16324204 165.37760925 3.14044189 C168.05666655 7.15902784 168.07371619 10.41685911 167.37760925 15.14044189 C165.58367257 18.01074058 164.39497649 19.63175828 161.37760925 21.14044189 C159.1592731 21.24571911 156.93769905 21.28440466 154.71688843 21.29434204 C154.02450351 21.29872429 153.33211858 21.30310655 152.6187523 21.3076216 C150.28731065 21.32102843 147.9559068 21.32719264 145.62443542 21.33331299 C143.95739571 21.34121242 142.29035772 21.34948128 140.62332153 21.35809326 C135.13909034 21.38432998 129.65485145 21.39962174 124.170578 21.41387939 C122.28425402 21.41923824 120.39793009 21.42461575 118.51160622 21.43001175 C110.66663239 21.45164218 102.82166065 21.47037996 94.97666454 21.48163414 C83.72502393 21.49788035 72.47372829 21.53107249 61.22221774 21.58803499 C53.31558287 21.62670219 45.40904039 21.64626296 37.50231344 21.6515547 C32.77753094 21.65521237 28.05311623 21.66727755 23.3284359 21.69965744 C18.88372213 21.72968183 14.43959976 21.73607021 9.99480629 21.72427368 C8.36336185 21.72405248 6.73189042 21.73239627 5.10054016 21.74992752 C2.87273909 21.77256562 0.64709234 21.76435224 -1.58071899 21.7484436 C-2.82715085 21.75175375 -4.07358271 21.7550639 -5.35778522 21.75847435 C-9.51477353 20.97150218 -10.97792348 19.363798 -13.62239075 16.14044189 C-15.19694814 12.99132711 -14.97038193 10.62035374 -14.62239075 7.14044189 C-10.97695079 0.8066659 -6.92557742 0.01697557 0 0 Z " fill="#000000" transform="translate(135.6223907470703,386.85955810546875)"/>
<path d="M0 0 C1.20269531 -0.02578125 2.40539062 -0.0515625 3.64453125 -0.078125 C7.53856229 0.28251294 9.88522623 1.1866815 13.1875 3.25 C15.8665573 7.26858595 15.88360694 10.52641721 15.1875 15.25 C13.39356332 18.12029869 12.20486724 19.74131638 9.1875 21.25 C6.23372888 21.45411054 3.33149311 21.57382545 0.375 21.625 C-0.83639648 21.68107422 -0.83639648 21.68107422 -2.07226562 21.73828125 C-6.5457514 21.80422944 -8.23492788 21.72194609 -11.82421875 18.7890625 C-12.48035156 17.95117188 -13.13648438 17.11328125 -13.8125 16.25 C-14.1425 15.92 -14.4725 15.59 -14.8125 15.25 C-15.2906408 10.54828209 -15.54181068 7.57594144 -12.5 3.8125 C-8.47285109 -0.02733966 -5.3881519 0.06885817 0 0 Z " fill="#000000" transform="translate(336.8125,386.75)"/>
</svg>
