<svg width="634" height="268" viewBox="0 0 634 268" fill="none" xmlns="http://www.w3.org/2000/svg">
<path d="M164.34 127.824L163.906 128.148C163.485 128.461 163.706 129.13 164.231 129.13H173.97C175.112 129.13 176.249 129.271 177.356 129.549C180.33 130.296 182.973 132.006 184.873 134.412L185.236 134.871C185.504 135.211 185.108 135.695 184.717 135.509C182.918 134.651 180.806 133.785 180.453 134.157C178.461 136.259 180.726 139.931 182.914 141.829C182.99 141.895 183.064 141.956 183.133 142.012C184.324 142.954 185.813 144.839 186.409 145.153C188.859 146.446 188.848 150.054 188.957 152.822L189.02 154.393C189.058 155.374 189.865 156.15 190.847 156.15H193.853C197.947 156.356 202.02 155.455 205.645 153.543L206.062 153.322L208.662 151.845C212.055 149.918 215.02 147.32 217.378 144.211L221.054 138.116C221.233 137.818 220.96 137.453 220.624 137.542C219.654 137.798 218.711 138.151 217.81 138.594L217.198 138.896C215.538 139.713 213.779 140.308 211.964 140.667C210.614 140.934 209.24 141.069 207.863 141.069H205.759C204.97 141.069 204.182 141.004 203.404 140.874C200.483 140.388 197.785 139.009 195.681 136.927L195.276 136.527C194.528 135.787 193.854 134.975 193.264 134.103L192.893 133.556C191.752 131.87 190.39 130.343 188.844 129.018L188.766 128.951C187.201 127.61 185.468 126.479 183.609 125.588L183.133 125.36L182.505 125.156C180.357 124.458 178.112 124.103 175.853 124.103H175.566C174.262 124.103 172.961 124.239 171.685 124.508C169.026 125.069 166.52 126.2 164.34 127.824Z" fill="url(#paint0_linear_190_338)"/>
<path d="M218.867 100.225H210.429C210.272 100.225 210.205 100.426 210.332 100.52C212.025 101.77 214.001 102.581 216.084 102.881L219.462 103.367L226.609 103.995H234.947L238.946 103.683C241.633 103.473 244.379 103.332 246.925 102.45C247.398 102.285 247.961 102.073 248.644 101.796C252.516 100.225 252.813 100.225 252.813 99.9109C252.813 99.6595 255.791 98.0258 257.28 96.1407C257.362 96.0369 257.444 95.935 257.526 95.8351C259.185 93.8071 261.057 91.9451 262.64 89.857L263.909 88.0712C264.847 86.7527 265.627 85.3297 266.236 83.831L266.278 83.7279C267.412 80.9366 267.911 77.8907 267.743 74.8826C267.724 74.5339 267.358 74.3093 267.041 74.4576C265.7 75.0867 264.435 75.8688 263.273 76.7883L262.64 77.2896L256.387 82.3165L245.964 89.857L237.031 94.5697L235.375 95.495C233.11 96.7597 230.719 97.782 228.24 98.5448C225.967 99.2444 223.631 99.7224 221.266 99.972L218.867 100.225Z" fill="url(#paint1_linear_190_338)"/>
<path d="M156.545 136.384L155.413 136.108C155.289 136.078 155.177 136.189 155.206 136.313C155.361 136.967 155.614 137.593 155.956 138.17L156.334 138.809C156.727 139.471 157.248 140.048 157.867 140.505L158.558 141.016C159.417 141.65 159.97 142.617 160.082 143.679C160.162 144.435 160.466 145.15 160.956 145.732L161.741 146.663C162.287 147.311 162.587 148.132 162.587 148.98V150.618C162.587 151.286 162.136 151.87 161.49 152.041C160.76 152.233 160.294 152.947 160.412 153.693L160.432 153.821C160.478 154.111 160.602 154.384 160.792 154.609L162.884 157.093L165.847 160.218C166.451 160.855 167.127 161.418 167.863 161.896L169.602 163.025C170.271 163.459 171.051 163.69 171.848 163.69C171.985 163.69 172.085 163.563 172.054 163.43L172.015 163.265C171.884 162.713 171.684 162.18 171.42 161.678L170.867 160.628C170.509 159.948 170.2 159.242 169.942 158.518L169.436 157.093L169.324 156.828C168.607 155.124 168.081 153.347 167.758 151.527C167.487 150.004 167.075 148.51 166.527 147.064L165.564 144.525L164.458 142.483C163.617 140.93 162.452 139.577 161.042 138.514C159.704 137.505 158.173 136.78 156.545 136.384Z" fill="url(#paint2_linear_190_338)"/>
<path d="M147.34 131.142L145.222 135.61C145.139 135.787 145.294 135.984 145.485 135.943C147.128 135.597 148.642 134.807 149.882 133.676C151.477 132.221 153.19 130.701 153.356 130.701C153.452 130.701 153.91 130.289 154.5 129.715C156.357 127.907 158.295 126.18 160.414 124.689L161.693 123.789L166.68 120.594C168.908 119.167 171.276 117.97 173.747 117.022L176.582 115.934L182.575 113.972C184.335 113.396 186.133 112.946 187.957 112.625L192.364 111.85L196.841 111.487C199.013 111.31 201.196 111.354 203.359 111.617L206.71 112.025C207.465 112.117 208.205 112.314 208.906 112.61L213.713 114.639C214.625 115.024 215.126 116.012 214.898 116.976C214.77 117.515 214.427 117.978 213.95 118.258L206.658 122.532C202.329 124.401 197.687 125.437 192.975 125.588L191.171 125.646C190.855 125.656 190.715 126.05 190.955 126.257C192.662 127.73 194.708 128.757 196.912 129.233C198.922 129.666 200.852 130.073 201 130.073C201.238 130.073 205.07 130.492 206.956 130.701H210.554C212.915 130.701 215.27 130.487 217.593 130.061L220.951 129.444L226.005 128.009C227.795 127.5 229.546 126.864 231.245 126.106L232.623 125.491C235.157 124.36 237.564 122.961 239.802 121.318L243.284 118.762L245.908 116.409C248.11 114.435 249.921 112.064 251.248 109.42C251.492 108.933 251.019 108.396 250.505 108.577L250.133 108.708L247.588 109.292C244.728 109.948 241.803 110.279 238.869 110.279H235.244L234.165 110.378C230.375 110.726 226.557 110.153 223.036 108.708L215.293 106.509L209.511 104.826C207.612 104.273 205.673 103.865 203.712 103.607L197.129 102.739H186.111L185.453 102.802C181.553 103.176 177.747 104.217 174.2 105.88L169.511 108.063C165.909 109.74 162.584 111.958 159.651 114.639L158.583 115.616C156.297 117.706 154.269 120.061 152.54 122.631L150.222 126.077C149.136 127.691 148.173 129.384 147.34 131.142Z" fill="url(#paint3_linear_190_338)"/>
<path d="M103.66 128.138L104.094 128.462C104.515 128.776 104.293 129.444 103.769 129.444H94.0295C92.8883 129.444 91.7513 129.585 90.6445 129.863C87.6705 130.61 85.0272 132.32 83.1266 134.727L82.7642 135.185C82.496 135.525 82.8923 136.009 83.2829 135.823C85.0818 134.966 87.1942 134.1 87.5467 134.471C89.5392 136.574 87.2736 140.246 85.0858 142.144C85.0096 142.21 84.9363 142.271 84.8667 142.326C83.6756 143.269 82.1867 145.154 81.5911 145.468C79.141 146.76 79.1518 150.369 79.0425 153.137L78.9805 154.708C78.9417 155.689 78.135 156.464 77.1529 156.464H74.1467C70.0534 156.67 65.9804 155.769 62.3555 153.857L61.9378 153.637L59.3379 152.16C55.9451 150.232 52.9798 147.635 50.6222 144.525L46.9459 138.43C46.7666 138.133 47.0398 137.768 47.3756 137.857C48.3465 138.113 49.2893 138.465 50.1902 138.909L50.8022 139.21C52.4617 140.027 54.2213 140.623 56.0358 140.982C57.3865 141.249 58.76 141.383 60.1368 141.383H62.2411C63.0301 141.383 63.8178 141.318 64.5961 141.189C67.5165 140.702 70.2145 139.323 72.3194 137.241L72.7235 136.841C73.472 136.101 74.1461 135.289 74.7362 134.417L75.1065 133.87C76.2482 132.184 77.6101 130.658 79.1562 129.332L79.2339 129.266C80.7986 127.925 82.5323 126.794 84.3907 125.903L84.8667 125.674L85.4949 125.47C87.6435 124.773 89.8883 124.417 92.1472 124.417H92.4343C93.7383 124.417 95.0387 124.553 96.3146 124.822C98.9739 125.384 101.48 126.515 103.66 128.138Z" fill="url(#paint4_linear_190_338)"/>
<path d="M49.1333 100.539H57.5708C57.7283 100.539 57.7945 100.74 57.6678 100.834C55.9749 102.084 53.9986 102.895 51.9156 103.195L48.5378 103.681L41.3911 104.31H33.0533L29.054 103.997C26.3675 103.787 23.6213 103.646 21.0752 102.764C20.6019 102.6 20.0391 102.388 19.3556 102.11C15.4845 100.539 15.1867 100.539 15.1867 100.225C15.1867 99.9738 12.2089 98.34 10.72 96.4549C10.638 96.3511 10.5561 96.2492 10.4744 96.1494C8.81481 94.1213 6.9433 92.2593 5.36001 90.1712L4.09064 88.3854C3.1534 87.0669 2.37252 85.644 1.76374 84.1452L1.72187 84.0421C0.588062 81.2508 0.0891075 78.2049 0.256817 75.1968C0.276257 74.8481 0.642479 74.6236 0.958698 74.7718C2.30026 75.4009 3.56461 76.183 4.72655 77.1025L5.36001 77.6038L11.6133 82.6307L22.0356 90.1712L30.9689 94.884L32.6253 95.8092C34.8895 97.0739 37.2809 98.0962 39.7597 98.8591C42.0331 99.5587 44.3688 100.037 46.7343 100.286L49.1333 100.539Z" fill="url(#paint5_linear_190_338)"/>
<path d="M111.455 136.698L112.587 136.422C112.711 136.392 112.823 136.503 112.794 136.627C112.639 137.281 112.386 137.907 112.044 138.485L111.666 139.123C111.273 139.785 110.752 140.362 110.133 140.82L109.442 141.33C108.583 141.965 108.03 142.931 107.918 143.993C107.838 144.749 107.534 145.464 107.044 146.046L106.259 146.977C105.713 147.626 105.413 148.446 105.413 149.294V150.932C105.413 151.6 105.864 152.184 106.51 152.355C107.24 152.547 107.706 153.262 107.588 154.008L107.568 154.135C107.522 154.425 107.398 154.698 107.208 154.923L105.116 157.407L102.153 160.533C101.549 161.169 100.873 161.733 100.137 162.21L98.3977 163.34C97.7291 163.774 96.9491 164.005 96.1519 164.005C96.0154 164.005 95.9146 163.877 95.9461 163.744L95.9853 163.579C96.116 163.027 96.3159 162.494 96.5802 161.992L97.1329 160.942C97.4912 160.262 97.8004 159.557 98.0579 158.832L98.5644 157.407L98.676 157.142C99.3935 155.439 99.9187 153.661 100.242 151.841C100.513 150.318 100.925 148.824 101.473 147.378L102.436 144.839L103.542 142.797C104.383 141.244 105.548 139.891 106.958 138.828C108.296 137.819 109.827 137.094 111.455 136.698Z" fill="url(#paint6_linear_190_338)"/>
<path d="M120.66 131.456L122.778 135.924C122.861 136.102 122.706 136.298 122.515 136.258C120.872 135.911 119.358 135.121 118.118 133.99C116.523 132.536 114.81 131.015 114.644 131.015C114.548 131.015 114.09 130.603 113.5 130.029C111.643 128.222 109.705 126.494 107.586 125.003L106.307 124.103L101.32 120.909C99.0917 119.481 96.7239 118.284 94.2533 117.336L91.4178 116.249L85.4251 114.286C83.6654 113.71 81.8669 113.26 80.0433 112.939L75.6355 112.164L71.1587 111.801C68.9874 111.625 66.8037 111.668 64.6412 111.932L61.2903 112.34C60.5345 112.432 59.7952 112.628 59.0938 112.925L54.2875 114.953C53.3749 115.338 52.8739 116.326 53.1022 117.29C53.23 117.829 53.5725 118.292 54.0504 118.572L61.3422 122.846C65.6709 124.715 70.3127 125.751 75.025 125.902L76.8285 125.96C77.1454 125.97 77.2848 126.364 77.0449 126.571C75.3381 128.044 73.2917 129.072 71.0877 129.547C69.078 129.98 67.1484 130.387 67 130.387C66.7618 130.387 62.9304 130.806 61.0444 131.015H57.4463C55.0855 131.015 52.7295 130.801 50.4075 130.375L47.0489 129.758L41.995 128.323C40.205 127.814 38.4538 127.178 36.7547 126.42L35.3774 125.805C32.8427 124.674 30.436 123.275 28.1982 121.632L24.7155 119.076L22.0924 116.724C19.8904 114.749 18.079 112.378 16.7525 109.734C16.5082 109.247 16.9807 108.711 17.4945 108.891L17.8666 109.022L20.4119 109.606C23.2719 110.262 26.1967 110.593 29.1309 110.593H32.7555L33.835 110.692C37.6252 111.04 41.4432 110.467 44.9644 109.022L52.7066 106.823L58.4888 105.14C60.3883 104.587 62.3271 104.18 64.2885 103.921L70.8711 103.053H81.8889L82.547 103.116C86.4466 103.49 90.253 104.531 93.8 106.195L98.489 108.377C102.091 110.054 105.416 112.272 108.349 114.953L109.417 115.93C111.703 118.02 113.731 120.375 115.46 122.945L117.778 126.391C118.864 128.005 119.827 129.699 120.66 131.456Z" fill="url(#paint7_linear_190_338)"/>
<path d="M142.04 135.414L139.216 144.65C139.125 144.949 138.849 145.154 138.536 145.154C138.306 145.154 138.09 145.042 137.956 144.854L137.595 144.346C137.386 144.052 137.264 143.706 137.243 143.347L137.062 140.29C137.006 139.346 137.056 138.399 137.212 137.467L137.871 133.529L139.062 128.188L144.124 113.421L146.804 106.195L148.185 103.12C149.047 101.199 150.162 99.4004 151.499 97.7728L152.553 96.4893C153.086 95.8404 153.537 95.1286 153.897 94.3698L154.821 92.4204C155.222 91.5746 155.322 90.6175 155.107 89.7067L155.001 89.2604C154.898 88.8284 154.915 88.3767 155.049 87.9533C155.294 87.1786 155.905 86.5748 156.683 86.3404L161.693 84.83L169.138 83.2591L175.811 81.7655C177.91 81.2958 179.966 80.6534 181.958 79.8448L186.707 77.9179L193.556 74.4619L195.252 73.514C197.488 72.2654 199.565 70.7524 201.439 69.0077C202.93 67.62 204.284 66.093 205.484 64.4475L207.89 61.1472C209.051 59.5549 210.048 57.8494 210.866 56.0567C212.606 52.2432 213.507 48.1003 213.507 43.9085V35.5029V31.4185L213.743 29.6761C213.769 29.4824 214.001 29.3973 214.146 29.5285L215.045 30.3416C215.599 30.8425 216.023 31.4711 216.278 32.1727L216.766 33.5101C217.133 34.5181 218.092 35.1887 219.164 35.1887C219.403 35.1887 221.249 31.2091 222.142 29.2192L222.355 28.7707C224.186 24.9069 225.369 20.7683 225.857 16.5205L226.067 14.6919C226.229 13.2778 226.28 11.8531 226.219 10.431L226.202 10.0288C226.077 7.13547 226.46 4.24264 227.332 1.48116C227.504 0.938171 228.247 0.87635 228.506 1.38356L229.884 4.08441L231.562 8.60788C232.229 10.4073 232.763 12.2535 233.159 14.1315L234.323 19.6582C234.738 21.6307 235 23.6323 235.106 25.6453L235.367 30.6032C235.484 32.8184 235.411 35.0394 235.15 37.2422L234.64 41.551C234.25 44.8366 233.445 48.0593 232.242 51.1414L231.969 51.8406L228.098 59.381L226.601 61.6259C223.852 65.7469 220.344 69.3066 216.263 72.1146L216.057 72.2563C215.965 72.3197 215.854 72.2071 215.919 72.116L218.271 68.8066L223.333 59.0668L226.721 52.2163C226.843 51.9691 226.907 51.6971 226.907 51.4214V47.857C226.907 46.6716 225.276 46.347 224.822 47.442L223.262 50.8983C222.319 52.9886 221.193 54.9916 219.898 56.8841L217.973 59.6952L215.895 62.4656C213.522 65.6273 210.683 68.4099 207.475 70.7182L205.764 71.9484C203.581 73.3099 199.154 76.0957 198.916 76.347C198.677 76.5984 193.258 79.3841 190.578 80.7456L181.399 85.4495C180.572 85.8734 179.786 86.373 179.05 86.9418L176.93 88.5825C176.118 89.2104 175.496 90.0506 175.133 91.0102L175.116 91.0533C175.103 91.0888 175.115 91.129 175.146 91.1509C175.693 91.5356 176.346 91.7421 177.014 91.7421H178.06C178.66 91.7421 179.257 91.6597 179.835 91.4972L183.431 90.4853L189.982 89.5428L193.22 88.8596C195.03 88.4777 196.81 87.9676 198.547 87.3331L203.68 85.4584C206.757 83.8875 213.03 80.6828 213.507 80.4314C213.983 80.1801 218.073 77.8132 220.058 76.6612L225.716 72.2626L226.872 71.2647C228.283 70.0464 229.605 68.7285 230.828 67.3212L235.542 61.8945L238.818 57.1817L240.511 54.7085C241.959 52.5922 243.196 50.3383 244.202 47.9794L245.369 45.2427L246.64 41.2177C246.837 40.5966 247.679 40.5074 248.001 41.0736C248.033 41.1298 248.057 41.1899 248.074 41.2525L248.758 43.8511C249.275 45.816 249.509 47.8448 249.452 49.8759L249.24 57.4959V59.8017C249.24 62.2388 249.012 64.6706 248.558 67.065L248.049 69.7491L246.864 73.7077C246.463 75.0464 245.962 76.3527 245.363 77.6155C244.575 79.2791 243.622 80.8598 242.519 82.3339L242.287 82.6436C240.578 84.9284 238.565 86.9701 236.305 88.7126L231.969 92.0563L229.36 94.3086C228.926 94.6829 228.387 94.9133 227.817 94.968L226.172 95.1258C225.74 95.1673 225.343 94.8835 225.243 94.4612C225.168 94.1424 225.278 93.8082 225.528 93.5968L228.098 91.4279L231.177 88.6792C231.704 88.2087 232.184 87.6884 232.611 87.1256L234.13 85.1212C234.275 84.9303 234.368 84.7051 234.4 84.4678C234.524 83.5498 233.733 82.7688 232.816 82.9069C232.65 82.932 232.489 82.9873 232.342 83.0699L228.098 85.4584L219.76 88.9144L214.435 91.0455C212.233 91.927 209.954 92.6056 207.628 93.0731L201.766 94.2512C199.671 94.6723 197.544 94.9205 195.408 94.9932L189.387 95.1981L187.346 95.3938C184.349 95.6813 181.396 96.3149 178.544 97.2818L174.498 98.6542L167.13 102.084C165.295 102.938 163.529 103.934 161.849 105.062L161.761 105.121C159.145 106.877 156.751 108.945 154.632 111.278L154.149 111.81C152.039 114.132 150.218 116.7 148.724 119.459L147.541 121.643C146.654 123.281 145.886 124.98 145.241 126.728L142.04 135.414Z" fill="url(#paint8_linear_190_338)"/>
<path d="M125.96 135.728L128.784 144.964C128.875 145.264 129.151 145.468 129.464 145.468C129.694 145.468 129.91 145.356 130.044 145.169L130.405 144.66C130.614 144.367 130.736 144.02 130.757 143.661L130.938 140.604C130.994 139.66 130.944 138.714 130.788 137.781L130.129 133.843L128.938 128.502L123.876 113.735L121.196 106.509L119.815 103.434C118.953 101.513 117.838 99.7146 116.501 98.087L115.447 96.8035C114.914 96.1546 114.463 95.4428 114.103 94.684L113.179 92.7346C112.778 91.8888 112.678 90.9317 112.893 90.0209L112.999 89.5747C113.102 89.1426 113.085 88.6909 112.951 88.2675C112.706 87.4928 112.095 86.8891 111.317 86.6546L106.307 85.1442L98.8622 83.5733L92.1887 82.0797C90.0902 81.61 88.0342 80.9676 86.0416 80.159L81.2934 78.2321L74.4445 74.7761L72.7475 73.8282C70.5121 72.5796 68.435 71.0666 66.5609 69.3219C65.0704 67.9342 63.716 66.4072 62.5163 64.7617L60.1102 61.4614C58.9494 59.8691 57.9523 58.1636 57.1342 56.3709C55.394 52.5574 54.4934 48.4145 54.4934 44.2227V35.8171V31.7327L54.2574 29.9903C54.2312 29.7966 53.9986 29.7116 53.8536 29.8427L52.9545 30.6558C52.4006 31.1567 51.9774 31.7853 51.7217 32.4869L51.2341 33.8243C50.8667 34.8323 49.9084 35.503 48.8356 35.503C48.5974 35.503 46.7511 31.5233 45.8578 29.5334L45.6452 29.0849C43.8142 25.2211 42.631 21.0825 42.1431 16.8347L41.933 15.0061C41.7705 13.592 41.7197 12.1673 41.7809 10.7452L41.7983 10.343C41.9229 7.44968 41.5404 4.55685 40.668 1.79537C40.4964 1.25238 39.7528 1.19056 39.4939 1.69777L38.1156 4.39862L36.438 8.92209C35.7706 10.7215 35.237 12.5677 34.8415 14.4457L33.6774 19.9724C33.262 21.9449 33.0001 23.9466 32.8941 25.9595L32.6331 30.9174C32.5164 33.1326 32.589 35.3536 32.85 37.5564L33.3604 41.8652C33.7497 45.1508 34.5554 48.3735 35.7583 51.4556L36.0311 52.1548L39.9022 59.6952L41.3995 61.9401C44.148 66.0611 47.6564 69.6208 51.7372 72.4288L51.9432 72.5705C52.0353 72.6339 52.1461 72.5213 52.0814 72.4302L49.7289 69.1208L44.6667 59.381L41.2791 52.5305C41.1569 52.2833 41.0934 52.0113 41.0934 51.7356V48.1712C41.0934 46.9858 42.7237 46.6612 43.1778 47.7562L44.7377 51.2125C45.6811 53.3028 46.8071 55.3058 48.1025 57.1983L50.0267 60.0094L52.1054 62.7798C54.4776 65.9415 57.3168 68.7241 60.5255 71.0324L62.2356 72.2626C64.4193 73.6241 68.8462 76.4099 69.0845 76.6612C69.3227 76.9126 74.7422 79.6983 77.4222 81.0598L86.601 85.7637C87.4282 86.1876 88.2144 86.6872 88.9495 87.256L91.07 88.8967C91.8816 89.5246 92.5037 90.3649 92.8674 91.3244L92.8838 91.3675C92.8973 91.4031 92.8849 91.4432 92.8538 91.4651C92.3069 91.8498 91.6545 92.0563 90.9858 92.0563H89.9398C89.3398 92.0563 88.7427 91.9739 88.1652 91.8114L84.5689 90.7996L78.0178 89.857L74.7801 89.1738C72.9705 88.7919 71.1903 88.2818 69.4531 87.6473L64.32 85.7726C61.243 84.2017 54.9698 80.997 54.4934 80.7456C54.0169 80.4943 49.9274 78.1274 47.9422 76.9754L42.2845 72.5768L41.1284 71.5789C39.7172 70.3606 38.3952 69.0428 37.1725 67.6354L32.4578 62.2087L29.1822 57.4959L27.4893 55.0227C26.0407 52.9064 24.8044 50.6525 23.7983 48.2936L22.6311 45.5569L21.3595 41.5319C21.1633 40.9108 20.3213 40.8216 19.9993 41.3878C19.9673 41.444 19.9428 41.5041 19.9263 41.5667L19.2422 44.1653C18.7249 46.1302 18.491 48.159 18.5476 50.1901L18.76 57.8101V60.1159C18.76 62.553 18.9885 64.9848 19.4423 67.3792L19.9511 70.0633L21.1359 74.022C21.5366 75.3606 22.0383 76.6669 22.6367 77.9297C23.4251 79.5934 24.3779 81.174 25.4808 82.6481L25.7125 82.9578C27.4222 85.2426 29.4346 87.2843 31.6945 89.0268L36.0311 92.3705L38.6402 94.6228C39.0738 94.9971 39.6129 95.2275 40.1831 95.2822L41.8284 95.44C42.2604 95.4815 42.6568 95.1977 42.7569 94.7754C42.8324 94.4566 42.7222 94.1224 42.4718 93.911L39.9022 91.7421L36.8234 88.9934C36.2965 88.5229 35.8162 88.0027 35.3894 87.4398L33.8697 85.4354C33.725 85.2445 33.632 85.0193 33.5999 84.782C33.4756 83.864 34.2675 83.083 35.1835 83.2211C35.3502 83.2462 35.5109 83.3015 35.6577 83.3841L39.9022 85.7726L48.24 89.2286L53.565 91.3597C55.7674 92.2412 58.0457 92.9198 60.3715 93.3873L66.234 94.5654C68.3293 94.9865 70.4556 95.2347 72.5916 95.3074L78.6134 95.5123L80.6538 95.708C83.6508 95.9955 86.6045 96.6291 89.4558 97.5961L93.5022 98.9684L100.87 102.398C102.705 103.252 104.471 104.248 106.151 105.376L106.239 105.435C108.855 107.192 111.249 109.259 113.368 111.592L113.851 112.124C115.961 114.446 117.782 117.015 119.276 119.773L120.459 121.957C121.346 123.595 122.114 125.295 122.759 127.043L125.96 135.728Z" fill="url(#paint9_linear_190_338)"/>
<path d="M143.568 144.258L144.589 142.211C144.77 141.849 145.316 141.978 145.316 142.382V145.468V153.008L144.751 158.963C144.739 159.091 144.581 159.146 144.493 159.052L144.129 158.669C143.339 157.835 142.717 156.858 142.295 155.79C141.737 154.377 141.547 152.847 141.741 151.341L141.984 149.458C142.218 147.648 142.754 145.891 143.568 144.258Z" fill="url(#paint10_linear_190_338)"/>
<path d="M120.867 141.796L120.182 140.811C120.036 140.601 119.707 140.704 119.707 140.96V141.383L120.302 147.039V150.601C120.302 153.038 120.531 155.47 120.985 157.865L121.15 158.739C121.168 158.831 121.286 158.859 121.343 158.784C122.032 157.875 122.529 156.836 122.805 155.73L123.161 154.301C123.633 152.409 123.741 150.445 123.48 148.513C123.153 146.098 122.257 143.796 120.867 141.796Z" fill="url(#paint11_linear_190_338)"/>
<path d="M149.963 151.647L149.921 151.526C149.869 151.374 149.66 151.359 149.586 151.502C148.541 153.524 147.996 155.767 147.996 158.043V162.434C147.996 162.881 147.525 164.355 147.211 165.265C147.142 165.463 146.992 165.622 146.799 165.704C146.27 165.927 145.697 165.496 145.765 164.926L145.862 164.104C145.894 163.836 145.837 163.565 145.699 163.332L144.517 161.336C144.467 161.252 144.354 161.231 144.277 161.292C142.855 162.417 141.985 164.1 141.89 165.911L141.811 167.403C141.766 168.275 141.839 169.15 142.029 170.002L142.458 171.927C142.771 173.332 143.378 174.655 144.238 175.81L144.526 176.198C145.62 177.667 147.148 178.755 148.895 179.307C148.994 179.339 149.087 179.224 149.043 179.13C148.68 178.353 148.277 176.853 147.996 176.258C147.4 175.001 147.996 172.173 147.996 170.917C147.996 168.708 149.957 166.935 150.288 164.751L150.719 161.911C150.888 160.795 150.973 159.667 150.973 158.538V157.68C150.973 155.627 150.632 153.588 149.963 151.647Z" fill="url(#paint12_linear_190_338)"/>
<path d="M123.876 161.805L124.769 157.721H125.364L127.449 159.292L128.938 162.12L129.533 166.204L128.64 170.288L126.556 171.545C126.456 170.498 126.258 168.34 126.258 168.089C126.258 167.838 125.464 165.261 125.067 164.005L123.876 161.805Z" fill="url(#paint13_linear_190_338)"/>
<path d="M114.793 152.537L115.526 151.421C115.725 151.116 116.197 151.235 116.227 151.598C116.323 152.748 116.431 154.08 116.431 154.265C116.431 154.516 116.63 157.302 116.729 158.663L117.622 163.062L118.033 164.796C118.134 165.223 118.568 165.483 118.993 165.371C119.252 165.303 119.455 165.105 119.561 164.859C119.793 164.319 120.133 163.734 120.302 163.376C120.485 162.991 120.742 162.37 121.005 161.946C121.225 161.593 121.591 161.748 121.738 162.137L122.089 163.062L123.004 165.477C123.188 165.961 123.334 166.458 123.44 166.965L123.528 167.379C123.757 168.469 123.757 169.594 123.528 170.684C123.363 171.463 123.083 172.212 122.704 172.913C122.01 174.196 121.196 175.751 121.196 175.944C121.196 176.258 119.111 180.028 118.813 180.342C118.635 180.531 117.885 180.613 117.271 180.643C116.972 180.657 116.729 180.414 116.729 180.114V179.174C116.729 178.28 116.825 177.388 117.016 176.514C117.415 174.691 117.395 172.802 116.979 170.983C116.686 169.702 116.431 168.546 116.431 168.403C116.431 168.152 115.637 166.204 115.24 165.261C114.258 163.603 113.626 161.761 113.385 159.85L113.284 159.054C113.199 158.377 113.185 157.692 113.244 157.012C113.381 155.415 113.914 153.877 114.793 152.537Z" fill="url(#paint14_linear_190_338)"/>
<path d="M131.916 172.174L133.404 167.461L136.68 162.12C136.645 164.005 136.382 168.34 136.382 169.346C136.382 170.603 136.978 173.744 137.276 174.059C137.514 174.31 138.963 177.096 139.658 178.457L142.04 180.971L145.911 183.17L149.187 185.369C149.683 186.521 150.676 188.951 150.676 189.454C150.676 189.956 150.477 191.548 150.378 192.281L149.187 193.852L147.4 191.339L144.124 187.569L142.636 185.055H139.658L139.36 187.569C139.459 188.406 139.658 190.145 139.658 190.396C139.658 190.648 141.444 193.015 142.338 194.167L145.911 197.623L149.187 199.822L154.249 202.335L158.418 205.163L163.182 208.933L166.458 213.018C166.855 214.798 167.649 218.484 167.649 218.987C167.649 219.49 167.252 222.129 167.053 223.386L165.862 223.072L163.48 218.987C162.587 217.416 160.74 214.149 160.502 213.646C160.264 213.143 157.822 210.714 156.631 209.562L149.782 205.163L144.72 202.964L138.467 200.136L134.298 196.052C133.504 194.69 131.916 191.904 131.916 191.653C131.916 191.339 130.129 184.427 130.129 184.113C130.129 183.798 129.533 178.457 129.831 177.829C130.069 177.326 131.32 173.849 131.916 172.174Z" fill="url(#paint15_linear_190_338)"/>
<path d="M130.035 199.219L130.287 197.179C130.341 196.747 130.882 196.585 131.164 196.916L133.107 199.193C134 200.241 135.787 202.398 135.787 202.649C135.787 202.901 137.176 205.477 137.871 206.734L139.349 209.333C140.145 210.733 141.16 211.997 142.354 213.077L142.602 213.302C142.621 213.318 142.649 213.317 142.666 213.299C143.025 212.921 143.2 212.405 143.145 211.887L142.933 209.876L142.104 206.374C142.071 206.237 142.175 206.105 142.316 206.105H143.002C143.935 206.105 144.853 206.333 145.679 206.768C146.42 207.159 147.067 207.708 147.573 208.376L148.392 209.457C148.92 210.153 149.601 210.754 149.974 211.544C150.551 212.764 150.378 214.205 150.378 214.588C150.378 215.091 150.576 216.683 150.378 217.416C149.593 219.487 149.251 221.703 149.221 223.918C149.208 224.872 149.187 225.668 149.187 225.899C149.187 226.402 148.988 229.25 149.187 230.612C149.385 233.544 149.782 239.535 149.782 240.037C149.782 240.666 148.889 241.608 148.889 241.294C148.889 240.98 147.102 238.781 147.102 238.467C147.102 238.34 146.851 237.573 146.539 236.629C145.907 234.72 145.131 232.866 144.189 231.09C143.974 230.686 143.827 230.383 143.827 230.298C143.827 229.984 141.742 225.899 141.444 225.585C141.358 225.493 140.966 224.997 140.45 224.316C138.457 221.688 135.971 219.496 133.702 217.102C133.404 216.788 132.213 214.588 131.916 214.274C131.618 213.96 130.129 210.818 130.129 210.504C130.129 210.37 130.016 208.975 129.88 207.353C129.653 204.643 129.701 201.918 130.035 199.219Z" fill="url(#paint16_linear_190_338)"/>
<path d="M159.013 228.413C159.013 228.252 158.239 227.092 157.473 225.895C157.162 225.407 156.333 225.635 156.333 226.213V228.945C156.333 230.47 156.156 231.99 155.804 233.474C155.562 234.497 155.238 235.498 154.835 236.469L154.738 236.703C153.822 238.912 153.21 241.254 153.19 243.646C153.151 248.423 153.951 250.205 153.951 250.72C153.951 251.422 154.656 252.637 154.844 253.233C155.142 254.176 155.936 256.689 156.929 257.946L159.242 260.997C160.08 262.102 160.802 263.291 161.396 264.544L161.656 265.093C162.077 265.981 162.588 266.824 163.182 267.607C163.285 267.743 163.5 267.678 163.511 267.508L163.653 265.26C163.735 263.958 163.559 262.652 163.134 261.418C162.772 260.368 162.235 259.386 161.546 258.514L159.609 256.061C158.645 254.435 158.269 252.527 158.542 250.657L158.716 249.463C159.013 247.473 158.716 243.054 158.716 242.551C158.716 242.048 159.51 240.457 159.907 239.723L160.138 239.285C160.954 237.735 162.254 236.493 163.84 235.749C163.96 235.693 163.997 235.539 163.914 235.435L162.587 233.754C161.595 232.499 160.684 231.181 159.825 229.831C159.382 229.134 159.013 228.538 159.013 228.413Z" fill="url(#paint17_linear_190_338)"/>
<path d="M126.556 236.267L127.233 236.927C129.342 238.981 131.033 241.424 132.213 244.122L132.481 244.686C132.494 244.713 132.471 244.743 132.442 244.738C131.333 244.543 130.33 243.96 129.612 243.094L128.978 242.33C128.864 242.192 128.64 242.273 128.64 242.452V242.507C128.64 244.172 129.146 245.799 130.092 247.17L130.335 247.524C130.791 248.185 131.159 248.904 131.428 249.661L131.928 251.07C132.488 252.646 133.696 253.907 135.245 254.536C136.186 254.918 137.01 255.537 137.641 256.332C138.632 257.581 139.781 259.018 139.956 259.203C140.194 259.454 142.437 261.612 143.529 262.659L146.098 265.821C146.407 266.201 146.042 266.752 145.572 266.617L143.827 266.115L143.676 266.051C141.817 265.267 140.167 264.059 138.858 262.524C138.399 261.986 137.895 261.488 137.418 260.967C137.119 260.639 136.841 260.315 136.68 260.145C136.469 259.923 134.596 258.26 134.298 257.946C134.08 257.716 132.179 256.941 131.022 256.49C130.828 256.415 130.663 256.283 130.549 256.109C129.82 255 128.64 253.151 128.64 252.919C128.64 252.668 126.456 249.463 125.364 247.892C124.868 246.95 124.173 244.75 123.876 244.122C123.761 243.881 123.551 243.478 123.297 243.021C122.39 241.393 121.026 240.104 119.807 238.695C119.615 238.474 119.471 238.283 119.409 238.152C119.111 237.524 118.218 234.382 117.92 233.44C117.622 232.497 118.516 228.727 118.516 228.098C118.516 227.757 118.883 227.008 119.243 226.366C119.435 226.022 119.927 226.05 120.096 226.406L121.196 228.727C121.99 230.193 123.637 233.188 123.876 233.44L126.556 236.267Z" fill="url(#paint18_linear_190_338)"/>
<path d="M135.717 234.419L135.298 238.397C135.25 238.851 134.732 239.086 134.358 238.823C134.318 238.795 134.282 238.762 134.249 238.724L131.32 235.325L129.533 232.811C128.938 232.183 127.747 230.863 127.747 230.612C127.747 230.361 126.556 228.831 125.96 228.098L124.074 226.33C123.546 225.835 122.963 225.403 122.336 225.042C120.813 224.165 119.561 222.879 118.753 221.318C118.015 219.894 117.324 218.515 117.324 218.359C117.324 218.044 115.836 216.474 115.24 216.159C114.644 215.845 114.942 212.389 114.942 212.075C114.942 211.895 115.095 210.464 115.292 209.361C115.416 208.663 115.451 207.938 115.288 207.249L115.154 206.686C115.018 206.113 114.663 205.615 114.165 205.299C113.706 205.009 113.158 204.893 112.621 204.974L111.791 205.099C111.51 205.142 111.234 205.21 110.967 205.304L109.582 205.791L107.606 206.387C107.534 206.409 107.46 206.42 107.385 206.42H107.236C107.032 206.42 106.847 206.302 106.759 206.118C106.666 205.921 106.703 205.687 106.853 205.529L108.391 203.906C109.086 203.068 110.833 201.644 111.071 201.393L112.858 199.508C113.652 198.67 114.644 196.617 114.644 196.366C114.644 196.051 115.24 193.852 115.24 193.224C115.24 192.595 114.942 189.454 114.942 189.139C114.942 188.825 114.711 188.23 115.538 186.312C115.994 185.254 116.375 184.588 116.699 184.153C117.491 183.09 118.831 182.532 120.004 181.913L122.387 180.971L123.352 180.68C124.096 180.455 124.817 180.159 125.505 179.797L125.688 179.7C125.882 179.598 126.098 179.794 126.015 179.997C125.585 181.056 124.646 181.931 124.48 183.061C124.474 183.098 124.471 183.135 124.471 183.17C124.471 183.391 124.203 183.66 123.843 183.92C122.959 184.557 122.089 185.244 121.534 186.181C121.115 186.887 120.867 187.68 120.807 188.499L120.611 191.183C120.604 191.287 120.606 191.391 120.618 191.494L120.83 193.281C120.863 193.556 121.162 193.713 121.407 193.584C121.464 193.554 121.527 193.538 121.591 193.538H121.82C122.182 193.538 122.528 193.389 122.777 193.127L123.173 192.708C123.244 192.634 123.328 192.573 123.42 192.53L125.015 191.782C125.291 191.652 125.565 191.963 125.403 192.221C125.377 192.261 125.362 192.305 125.357 192.352L125.201 193.832C125.112 194.676 124.864 195.494 124.468 196.245L123.578 197.937L122.867 199.137C122.35 200.01 121.935 200.938 121.629 201.905C121.146 203.436 120.944 205.042 121.033 206.645L121.196 209.561C121.781 213.476 123.356 217.177 125.772 220.313L125.96 220.558L130.427 224.957L132.229 226.858C133.397 228.09 134.294 229.553 134.862 231.152L135.563 233.123C135.71 233.538 135.763 233.981 135.717 234.419Z" fill="url(#paint19_linear_190_338)"/>
<path d="M148.985 257.678L148.663 258.924C148.636 259.03 148.496 259.052 148.437 258.96L147.996 258.26L147.295 256.783C146.773 255.68 146.079 254.667 145.24 253.782L144.598 253.105C144.088 252.567 143.676 251.942 143.383 251.261C142.714 249.709 142.696 247.953 143.332 246.388L143.925 244.928C143.968 244.823 144.124 244.853 144.124 244.967C144.124 245.864 144.274 246.754 144.566 247.602L144.644 247.828C145.086 249.113 145.799 250.288 146.734 251.274L147.555 252.14C148.043 252.655 148.435 253.255 148.71 253.909C149.212 255.101 149.309 256.425 148.985 257.678Z" fill="url(#paint20_linear_190_338)"/>
<path d="M133.993 114.514L133.765 115.196C133.612 115.655 132.96 115.65 132.814 115.188L131.832 112.08L130.387 106.743L129.01 101.414C128.486 99.3889 127.633 97.4633 126.486 95.7143C125.479 94.1792 124.698 92.507 124.168 90.7492L123.853 89.7064C122.919 86.6087 122.134 83.1676 119.909 80.8193C119.689 80.5871 118.338 79.0144 117.386 77.5479C116.845 76.7137 116.554 75.7543 116.349 74.7813C115.616 71.3029 116.182 67.6767 117.939 64.5867L118.463 63.6643L121.715 57.1835L122.76 54.6646C123.744 52.2905 125.074 50.0745 126.705 48.0885L127.634 46.9578C128.502 45.9011 129.224 44.7326 129.781 43.4837C131.113 40.4968 133.369 38.0162 136.216 36.4068L141.117 33.6366C141.54 33.3977 141.626 32.8253 141.292 32.4729L139.781 30.879C138.697 29.9895 136.457 28.058 136.168 27.448C136.138 27.3845 136.086 27.3038 136.017 27.2091C134.071 24.5374 131.631 22.2382 129.933 19.4024C129.621 18.8824 129.388 18.4782 129.303 18.2987C128.942 17.5362 128.219 14.4864 128.219 14.1052C128.219 13.8612 128.527 13.2755 128.774 12.8558C128.862 12.7056 129.061 12.6685 129.201 12.772L132.555 15.2489L140.142 20.9672L142.364 22.7905C145.177 25.0991 148.505 26.6966 152.066 27.448C154.226 28.2076 156.297 29.2375 158.208 30.4978L159.422 31.4128C161.944 33.3131 163.941 35.8228 165.227 38.7064C165.845 40.0909 166.291 41.5455 166.556 43.038L166.787 44.337C167.089 46.036 167.241 47.7583 167.241 49.4839V57.1671C167.241 57.1772 167.235 57.1864 167.227 57.1911C166.808 57.412 166.293 57.3272 165.968 56.9835L165.623 56.6196C165.498 56.488 165.395 56.3376 165.317 56.1738L164.712 54.8961L164.659 54.7466C163.976 52.8273 163.544 50.8095 163.291 48.7882C163.193 48.0043 163.083 47.1456 162.973 46.3037C162.699 44.2058 161.761 42.252 160.305 40.7164C159.633 40.0073 158.862 39.3997 158.015 38.9124L155.318 37.3598C153.758 36.6547 151.938 36.8568 150.572 37.8868L150.31 38.0841C150.286 38.1019 150.289 38.1381 150.315 38.1519L150.471 38.2338C152.717 39.419 154.714 41.0272 156.35 42.9699L156.763 43.4594L158.931 46.5092L159.749 47.8904C160.401 48.9906 160.815 50.215 160.965 51.4849C161.027 52.0033 160.523 52.4065 160.031 52.2333L155.679 50.7027L152.96 49.5338C149.8 48.1755 146.646 50.6943 146.646 54.1337C146.646 54.3868 147.642 57.4598 148.394 59.7323C148.672 60.5744 148.893 61.4339 149.051 62.3068L149.144 62.8231C149.864 66.8107 150.591 72.4478 147.007 74.3385L147.004 74.3403C146.356 74.6822 144.84 75.4822 138.697 75.4822C138.509 75.4822 138.321 75.4707 138.133 75.4493C134.223 75.0026 131.428 71.4112 129.325 68.0838C129.184 67.8602 128.843 67.9195 128.785 68.1776L128.74 68.3804C127.922 72.0504 128.01 75.8463 128.737 79.5356C128.862 80.1701 128.942 80.6439 128.942 80.8193C128.942 81.4293 130.628 85.1398 131.471 86.9189L132.679 89.5656C134.97 94.5878 136.007 100.092 135.7 105.604C135.531 108.637 134.957 111.633 133.993 114.514Z" fill="url(#paint21_linear_190_338)"/>
<path d="M139.085 101.945L139.068 102.085C139.064 102.118 139.024 102.131 139.001 102.107C138.331 101.4 137.878 100.515 137.697 99.5581L137.252 97.212L137.102 96.0301C136.722 93.0164 136.812 89.505 134.723 87.3002C133.179 85.6712 132.442 83.443 132.23 81.2085L132.21 80.9948C132.203 80.9195 132.282 80.8663 132.349 80.9016L133.22 81.3609C133.98 81.7617 134.706 82.2229 135.392 82.7399L136.701 83.7264C136.827 83.8213 136.941 83.9305 137.042 84.0519L138.127 85.3599C138.685 86.0329 139.767 85.8213 140.03 84.9876C140.103 84.7567 140.25 84.5562 140.448 84.4169L141.626 83.5879C142.08 83.2691 142.481 82.882 142.815 82.4404L145.201 79.2945L145.934 78.4109C147.088 77.0184 148.726 76.1133 150.52 75.8768C150.563 75.8711 150.596 75.9156 150.577 75.9552L149.537 78.1509L148.091 80.4382L146.954 81.8385C146.269 82.681 145.688 83.6025 145.224 84.5834C144.729 85.6279 144.369 86.7313 144.154 87.867L144.016 88.5935C143.843 89.5092 143.603 90.4111 143.299 91.2922L142.911 92.4204C142.511 93.5788 141.999 94.6953 141.382 95.7537L140.854 96.6593C139.908 98.2812 139.306 100.08 139.085 101.945Z" fill="url(#paint22_linear_190_338)"/>
<path d="M136.461 29.1712L137.925 31.6113C138.089 31.8846 137.892 32.2324 137.574 32.2324L134.676 31.8702L131.779 31.5081L131.779 31.5081C131.271 31.4445 128.882 31.1459 128.52 31.1459C127.1 31.1459 126.89 28.8395 125.968 27.7595C125.646 27.3814 125.375 27.0299 125.26 26.8C124.97 26.2205 123.449 25.3513 122.725 24.9892C121.638 24.5063 119.393 23.4681 119.103 23.1783C119.05 23.1247 119.02 23.0371 119.009 22.9262C118.892 21.7658 120.278 21.1215 121.433 21.2864C121.807 21.3398 122.164 21.4762 122.478 21.6857L123.547 22.3988C123.964 22.6765 124.405 22.9154 124.865 23.1126L126.709 23.9027L129.968 25.3513C130.934 25.8342 132.861 26.9789 133.228 27.1621C134.856 27.9764 135.302 28.2186 135.531 28.3388C135.907 28.5367 136.243 28.8069 136.461 29.1712Z" fill="url(#paint23_linear_190_338)"/>
<path d="M332.6 124.1C323.4 124.1 316.367 121.933 311.5 117.6C306.633 113.267 304.2 106.933 304.2 98.6V77.3C304.2 68.9 306.6 62.5667 311.4 58.3C316.267 54.0333 323.4 51.9 332.8 51.9C338.8 51.9 343.9 52.8 348.1 54.6C352.3 56.4 355.767 59.1333 358.5 62.8L351.5 68.1C349.233 65.1667 346.6 63 343.6 61.6C340.667 60.1333 337.033 59.4 332.7 59.4C320.033 59.4 313.7 65.3667 313.7 77.3V98.6C313.7 110.6 320.033 116.6 332.7 116.6C338.233 116.6 342.567 115.567 345.7 113.5C348.9 111.433 350.5 108.567 350.5 104.9V99.6C350.5 96.9333 349.8 94.9 348.4 93.5C347.067 92.1 345.067 91.4 342.4 91.4H330.6V83.9H344.8C349.867 83.9 353.633 85.1 356.1 87.5C358.567 89.9 359.8 93.5667 359.8 98.5V105.5C359.8 111.233 357.333 115.767 352.4 119.1C347.533 122.433 340.933 124.1 332.6 124.1ZM392.397 123C384.264 123 378.297 121.233 374.497 117.7C370.697 114.167 368.797 108.867 368.797 101.8V74.2C368.797 67.1333 370.697 61.8333 374.497 58.3C378.297 54.7667 384.264 53 392.397 53H416.297V60.5H392.397C387.53 60.5 383.964 61.6333 381.697 63.9C379.43 66.1 378.297 69.5333 378.297 74.2V84.2H411.397V91.8H378.297V101.8C378.297 106.467 379.43 109.933 381.697 112.2C383.964 114.4 387.53 115.5 392.397 115.5H416.697V123H392.397ZM483.202 53V110.6C483.202 114.733 482.336 117.833 480.602 119.9C478.936 121.967 476.269 123 472.602 123H465.902L437.102 67.6V123H428.102V53H439.102L470.802 114.8H471.402C472.469 114.8 473.202 114.4 473.602 113.6C474.002 112.8 474.202 111.333 474.202 109.2V53H483.202ZM518.768 123C510.635 123 504.668 121.233 500.868 117.7C497.068 114.167 495.168 108.867 495.168 101.8V74.2C495.168 67.1333 497.068 61.8333 500.868 58.3C504.668 54.7667 510.635 53 518.768 53H542.668V60.5H518.768C513.901 60.5 510.335 61.6333 508.068 63.9C505.801 66.1 504.668 69.5333 504.668 74.2V84.2H537.768V91.8H504.668V101.8C504.668 106.467 505.801 109.933 508.068 112.2C510.335 114.4 513.901 115.5 518.768 115.5H543.068V123H518.768ZM575.873 124.1C569.473 124.1 564.307 123.133 560.373 121.2C556.507 119.267 552.873 116.067 549.473 111.6L555.873 106.1C558.673 109.967 561.54 112.7 564.473 114.3C567.407 115.833 571.107 116.6 575.573 116.6C581.507 116.6 586.007 115.567 589.073 113.5C592.207 111.367 593.773 108.267 593.773 104.2C593.773 101.867 593.14 99.9667 591.873 98.5C590.673 97.0333 588.54 95.7667 585.473 94.7C582.407 93.5667 577.873 92.4 571.873 91.2C565.14 89.8667 560.173 87.6 556.973 84.4C553.773 81.2 552.173 76.9667 552.173 71.7C552.173 65.5667 554.373 60.7333 558.773 57.2C563.24 53.6667 569.34 51.9 577.073 51.9C588.473 51.9 596.54 55.6667 601.273 63.2L594.873 68.4C592.54 65.4 589.94 63.1667 587.073 61.7C584.273 60.1667 580.907 59.4 576.973 59.4C572.173 59.4 568.407 60.5 565.673 62.7C563.007 64.8333 561.673 67.7667 561.673 71.5C561.673 74.8333 563.007 77.4667 565.673 79.4C568.34 81.2667 572.373 82.7333 577.773 83.8C583.973 85.0667 588.873 86.4667 592.473 88C596.073 89.5333 598.773 91.5667 600.573 94.1C602.373 96.6333 603.273 99.9667 603.273 104.1C603.273 110.7 600.94 115.7 596.273 119.1C591.673 122.433 584.873 124.1 575.873 124.1ZM614.778 53H624.278V123H614.778V53Z" fill="url(#paint24_linear_190_338)"/>
<path d="M360.5 155V216.3C360.5 219.233 359.867 221.433 358.6 222.9C357.4 224.3 355.533 225 353 225H349.3L312.8 162.4V225H307.8V155H314.2L352.1 220.3H352.8C353.8 220.3 354.5 220 354.9 219.4C355.3 218.733 355.5 217.567 355.5 215.9V155H360.5ZM428.994 226.1C420.26 226.1 413.56 223.9 408.894 219.5C404.227 215.1 401.894 208.8 401.894 200.6V179.4C401.894 171.2 404.227 164.9 408.894 160.5C413.56 156.1 420.26 153.9 428.994 153.9C437.727 153.9 444.427 156.1 449.094 160.5C453.827 164.9 456.194 171.2 456.194 179.4V200.6C456.194 208.8 453.827 215.1 449.094 219.5C444.427 223.9 437.727 226.1 428.994 226.1ZM428.994 221.7C436.06 221.7 441.494 219.9 445.294 216.3C449.094 212.633 450.994 207.4 450.994 200.6V179.4C450.994 172.6 449.094 167.367 445.294 163.7C441.494 160.033 436.06 158.2 428.994 158.2C421.994 158.2 416.594 160.033 412.794 163.7C408.994 167.367 407.094 172.6 407.094 179.4V200.6C407.094 207.4 408.994 212.633 412.794 216.3C416.594 219.9 421.994 221.7 428.994 221.7ZM517.34 226.1C514.807 226.1 512.74 225.233 511.14 223.5C509.607 221.7 508.173 218.633 506.84 214.3L489.14 155H494.34L512.24 214.2C512.973 216.8 513.707 218.633 514.44 219.7C515.24 220.7 516.207 221.2 517.34 221.2C518.473 221.2 519.407 220.7 520.14 219.7C520.94 218.633 521.707 216.8 522.44 214.2L540.34 155H545.64L527.84 214.3C526.507 218.567 525.04 221.6 523.44 223.4C521.907 225.2 519.873 226.1 517.34 226.1ZM615.72 200.7H582.92L575.32 225H570.12L588.52 165.7C589.854 161.3 591.32 158.233 592.92 156.5C594.52 154.767 596.654 153.9 599.32 153.9C601.987 153.9 604.12 154.767 605.72 156.5C607.32 158.233 608.787 161.3 610.12 165.7L628.52 225H623.22L615.72 200.7ZM614.42 196.5L604.82 165.7C603.954 163.1 603.12 161.3 602.32 160.3C601.587 159.3 600.587 158.8 599.32 158.8C598.054 158.8 597.02 159.3 596.22 160.3C595.487 161.233 594.687 163.033 593.82 165.7L584.22 196.5H614.42Z" fill="url(#paint25_linear_190_338)"/>
<defs>
<linearGradient id="paint0_linear_190_338" x1="192.067" y1="124.103" x2="192.067" y2="156.464" gradientUnits="userSpaceOnUse">
<stop stop-color="#E6E6E6"/>
<stop offset="1" stop-color="#827E5D"/>
</linearGradient>
<linearGradient id="paint1_linear_190_338" x1="238.967" y1="74.1477" x2="238.967" y2="103.995" gradientUnits="userSpaceOnUse">
<stop stop-color="#E6E6E6"/>
<stop offset="1" stop-color="#827E5D"/>
</linearGradient>
<linearGradient id="paint2_linear_190_338" x1="198.469" y1="102.739" x2="198.469" y2="163.69" gradientUnits="userSpaceOnUse">
<stop stop-color="#E6E6E6"/>
<stop offset="1" stop-color="#827E5D"/>
</linearGradient>
<linearGradient id="paint3_linear_190_338" x1="198.469" y1="102.739" x2="198.469" y2="163.69" gradientUnits="userSpaceOnUse">
<stop stop-color="#E6E6E6"/>
<stop offset="1" stop-color="#827E5D"/>
</linearGradient>
<linearGradient id="paint4_linear_190_338" x1="75.9333" y1="124.417" x2="75.9333" y2="156.779" gradientUnits="userSpaceOnUse">
<stop stop-color="#E6E6E6"/>
<stop offset="1" stop-color="#827E5D"/>
</linearGradient>
<linearGradient id="paint5_linear_190_338" x1="29.0333" y1="74.4619" x2="29.0333" y2="104.31" gradientUnits="userSpaceOnUse">
<stop stop-color="#E6E6E6"/>
<stop offset="1" stop-color="#827E5D"/>
</linearGradient>
<linearGradient id="paint6_linear_190_338" x1="69.5311" y1="103.053" x2="69.5311" y2="164.005" gradientUnits="userSpaceOnUse">
<stop stop-color="#E6E6E6"/>
<stop offset="1" stop-color="#827E5D"/>
</linearGradient>
<linearGradient id="paint7_linear_190_338" x1="69.5311" y1="103.053" x2="69.5311" y2="164.005" gradientUnits="userSpaceOnUse">
<stop stop-color="#E6E6E6"/>
<stop offset="1" stop-color="#827E5D"/>
</linearGradient>
<linearGradient id="paint8_linear_190_338" x1="193.258" y1="0" x2="193.258" y2="145.154" gradientUnits="userSpaceOnUse">
<stop stop-color="#E6E6E6"/>
<stop offset="1" stop-color="#827E5D"/>
</linearGradient>
<linearGradient id="paint9_linear_190_338" x1="74.7422" y1="0.314209" x2="74.7422" y2="145.468" gradientUnits="userSpaceOnUse">
<stop stop-color="#E6E6E6"/>
<stop offset="1" stop-color="#827E5D"/>
</linearGradient>
<linearGradient id="paint10_linear_190_338" x1="143.38" y1="140.755" x2="143.38" y2="159.292" gradientUnits="userSpaceOnUse">
<stop stop-color="#E6E6E6"/>
<stop offset="1" stop-color="#827E5D"/>
</linearGradient>
<linearGradient id="paint11_linear_190_338" x1="121.791" y1="140.127" x2="121.791" y2="158.978" gradientUnits="userSpaceOnUse">
<stop stop-color="#E6E6E6"/>
<stop offset="1" stop-color="#827E5D"/>
</linearGradient>
<linearGradient id="paint12_linear_190_338" x1="146.358" y1="151.123" x2="146.358" y2="179.4" gradientUnits="userSpaceOnUse">
<stop stop-color="#E6E6E6"/>
<stop offset="1" stop-color="#827E5D"/>
</linearGradient>
<linearGradient id="paint13_linear_190_338" x1="126.704" y1="157.721" x2="126.704" y2="171.545" gradientUnits="userSpaceOnUse">
<stop stop-color="#E6E6E6"/>
<stop offset="1" stop-color="#827E5D"/>
</linearGradient>
<linearGradient id="paint14_linear_190_338" x1="118.516" y1="150.495" x2="118.516" y2="180.656" gradientUnits="userSpaceOnUse">
<stop stop-color="#E6E6E6"/>
<stop offset="1" stop-color="#827E5D"/>
</linearGradient>
<linearGradient id="paint15_linear_190_338" x1="148.698" y1="162.12" x2="148.698" y2="223.386" gradientUnits="userSpaceOnUse">
<stop stop-color="#E6E6E6"/>
<stop offset="1" stop-color="#827E5D"/>
</linearGradient>
<linearGradient id="paint16_linear_190_338" x1="140" y1="196.052" x2="140" y2="241.357" gradientUnits="userSpaceOnUse">
<stop stop-color="#E6E6E6"/>
<stop offset="1" stop-color="#827E5D"/>
</linearGradient>
<linearGradient id="paint17_linear_190_338" x1="158.632" y1="224.014" x2="158.632" y2="268" gradientUnits="userSpaceOnUse">
<stop stop-color="#E6E6E6"/>
<stop offset="1" stop-color="#827E5D"/>
</linearGradient>
<linearGradient id="paint18_linear_190_338" x1="132.481" y1="225.585" x2="132.481" y2="267.057" gradientUnits="userSpaceOnUse">
<stop stop-color="#E6E6E6"/>
<stop offset="1" stop-color="#827E5D"/>
</linearGradient>
<linearGradient id="paint19_linear_190_338" x1="121.196" y1="179.4" x2="121.196" y2="239.409" gradientUnits="userSpaceOnUse">
<stop stop-color="#E6E6E6"/>
<stop offset="1" stop-color="#827E5D"/>
</linearGradient>
<linearGradient id="paint20_linear_190_338" x1="145.911" y1="244.436" x2="145.911" y2="259.203" gradientUnits="userSpaceOnUse">
<stop stop-color="#E6E6E6"/>
<stop offset="1" stop-color="#827E5D"/>
</linearGradient>
<linearGradient id="paint21_linear_190_338" x1="141.226" y1="12.5803" x2="141.226" y2="116.654" gradientUnits="userSpaceOnUse">
<stop stop-color="#E6E6E6"/>
<stop offset="1" stop-color="#827E5D"/>
</linearGradient>
<linearGradient id="paint22_linear_190_338" x1="141.407" y1="75.8635" x2="141.407" y2="102.168" gradientUnits="userSpaceOnUse">
<stop stop-color="#E6E6E6"/>
<stop offset="1" stop-color="#827E5D"/>
</linearGradient>
<linearGradient id="paint23_linear_190_338" x1="128.651" y1="21.0054" x2="128.651" y2="32.2324" gradientUnits="userSpaceOnUse">
<stop stop-color="#E6E6E6"/>
<stop offset="1" stop-color="#827E5D"/>
</linearGradient>
<linearGradient id="paint24_linear_190_338" x1="466" y1="18" x2="466" y2="148" gradientUnits="userSpaceOnUse">
<stop stop-color="#A09370"/>
<stop offset="1" stop-color="#808080"/>
</linearGradient>
<linearGradient id="paint25_linear_190_338" x1="466" y1="120" x2="466" y2="250" gradientUnits="userSpaceOnUse">
<stop stop-color="#A09370"/>
<stop offset="1" stop-color="#808080"/>
</linearGradient>
</defs>
</svg>
