<svg xmlns="http://www.w3.org/2000/svg" xmlns:xlink="http://www.w3.org/1999/xlink" width="100" zoomAndPan="magnify" viewBox="0 0 75 74.999997" height="100" preserveAspectRatio="xMidYMid meet" version="1.0"><defs><clipPath id="801b1328f2"><path d="M 10.78125 0 L 64.03125 0 L 64.03125 75 L 10.78125 75 Z M 10.78125 0 " clip-rule="nonzero"/></clipPath></defs><g clip-path="url(#801b1328f2)"><path fill="#ffffff" d="M 11.191406 72.523438 C 24.273438 49.207031 40.988281 25.277344 61.339844 0.734375 C 61.878906 0.0898438 62.835938 0 63.480469 0.535156 C 64.125 1.070312 64.214844 2.027344 63.679688 2.671875 C 43.445312 27.074219 26.832031 50.851562 13.839844 74.011719 C 13.429688 74.742188 12.503906 75 11.773438 74.589844 C 11.042969 74.179688 10.78125 73.253906 11.191406 72.523438 Z M 11.191406 72.523438 " fill-opacity="1" fill-rule="nonzero"/></g><path fill="#ffffff" d="M 17.636719 14.238281 C 17.839844 14.804688 18.367188 15.640625 19.214844 16.75 L 19.070312 16.585938 C 20.828125 18.296875 28.402344 28.125 41.785156 46.070312 L 41.730469 46 C 46.75 51.984375 53.214844 58.984375 61.117188 67.003906 C 61.707031 67.601562 61.699219 68.5625 61.101562 69.148438 C 60.503906 69.738281 59.542969 69.730469 58.953125 69.132812 C 50.996094 61.058594 44.476562 53.996094 39.40625 47.953125 C 39.386719 47.929688 39.367188 47.90625 39.351562 47.882812 C 26.0625 30.070312 18.597656 20.363281 16.953125 18.761719 C 16.902344 18.710938 16.851562 18.65625 16.808594 18.597656 C 15.761719 17.238281 15.085938 16.125 14.777344 15.257812 C 14.496094 14.46875 14.90625 13.597656 15.699219 13.316406 C 16.488281 13.035156 17.355469 13.445312 17.636719 14.238281 Z M 17.636719 14.238281 " fill-opacity="1" fill-rule="nonzero"/></svg>